<svg xmlns="http://www.w3.org/2000/svg" width="1127" height="444" viewBox="0 0 1127 444"><g><g opacity=".05"><g opacity=".05"/><g opacity=".05"><g opacity=".05"><g opacity=".05"><path fill="#333" d="M397.258 144.23H340.26v272.117h56.998z"/></g><g opacity=".05"><path fill="#333" d="M381.538 130.43H355.63v15.348h25.908z"/></g><g opacity=".05"><path fill="#333" d="M376.187 121.47H361.16v8.795h15.027z"/></g><g opacity=".05"><path fill="#333" d="M367.72 143.712L368.756-4.59l.864 148.302z"/></g><g opacity=".02"><path fill="#fff" d="M371.695 183.89h-6.045v6.036h6.045z"/></g><g opacity=".02"><path fill="#fff" d="M371.695 203.2h-6.045v6.036h6.045z"/></g><g opacity=".01"><path fill="#fff" d="M371.695 222.35h-6.045v6.036h6.045z"/></g><g opacity=".01"><path fill="#fff" d="M371.695 241.66h-6.045v6.036h6.045z"/></g><g opacity=".01"><path fill="#fff" d="M371.695 260.8h-6.045v6.036h6.045z"/></g><g opacity=".02"><path fill="#fff" d="M371.695 280.11h-6.045v6.036h6.045z"/></g><g opacity=".01"><path fill="#fff" d="M371.695 299.26h-6.045v6.036h6.045z"/></g><g opacity=".01"><path fill="#fff" d="M371.695 318.57h-6.045v6.035h6.045z"/></g></g><g opacity=".05"><g opacity=".05"><path fill="#e6e6e6" d="M203.808 173.49H56.65v48.974h147.158z"/></g><g opacity=".05"><path fill="#b3b3b3" d="M114.511 173.49H56.65v48.974h57.861z"/></g><g opacity=".05"><path fill="#333" d="M114.514 222.47H0v237.456h114.514z"/></g><g opacity=".05"><path fill="#4d4d4d" d="M293.103 205.79H114.51v237.456h178.593z"/></g><g opacity=".05"><path fill="#fff" d="M36.27 232.29h-9.5v9.485h9.5z"/></g><g opacity=".05"><path fill="#fff" d="M49.05 232.29h-9.5v9.485h9.5z"/></g><g opacity=".05"><path fill="#fff" d="M62.01 232.29h-9.5v9.485h9.5z"/></g><g opacity=".05"><path fill="#fff" d="M74.96 232.29h-9.5v9.485h9.5z"/></g><g opacity=".05"><path fill="#fff" d="M87.74 232.29h-9.5v9.485h9.5z"/></g><g opacity=".05"><path fill="#fff" d="M145.6 232.29h-9.5v9.485h9.5z"/></g><g opacity=".05"><path fill="#fff" d="M158.21 232.29h-9.5v9.485h9.5z"/></g><g opacity=".05"><path fill="#fff" d="M170.82 232.29h-9.5v9.485h9.5z"/></g><g opacity=".05"><path fill="#fff" d="M183.43 232.29h-9.5v9.485h9.5z"/></g><g opacity=".05"><path fill="#fff" d="M196.04 232.29h-9.5v9.485h9.5z"/></g><g opacity=".05"><path fill="#fff" d="M208.65 232.29h-9.5v9.485h9.5z"/></g><g opacity=".05"><path fill="#fff" d="M221.08 232.29h-9.5v9.485h9.5z"/></g><g opacity=".05"><path fill="#fff" d="M233.69 232.29h-9.5v9.485h9.5z"/></g><g opacity=".05"><path fill="#fff" d="M246.3 232.29h-9.5v9.485h9.5z"/></g><g opacity=".05"><path fill="#fff" d="M258.91 232.29h-9.5v9.485h9.5z"/></g><g opacity=".05"><path fill="#fff" d="M145.6 244.71h-9.5v9.484h9.5z"/></g><g opacity=".05"><path fill="#fff" d="M158.21 244.71h-9.5v9.484h9.5z"/></g><g opacity=".05"><path fill="#fff" d="M170.82 244.71h-9.5v9.484h9.5z"/></g><g opacity=".05"><path fill="#fff" d="M183.43 244.71h-9.5v9.484h9.5z"/></g><g opacity=".05"><path fill="#fff" d="M196.04 244.71h-9.5v9.484h9.5z"/></g><g opacity=".05"><path fill="#fff" d="M208.65 244.71h-9.5v9.484h9.5z"/></g><g opacity=".05"><path fill="#fff" d="M221.08 244.71h-9.5v9.484h9.5z"/></g><g opacity=".05"><path fill="#fff" d="M233.69 244.71h-9.5v9.484h9.5z"/></g><g opacity=".05"><path fill="#fff" d="M246.3 244.71h-9.5v9.484h9.5z"/></g><g opacity=".05"><path fill="#fff" d="M258.91 244.71h-9.5v9.484h9.5z"/></g><g opacity=".05"><path fill="#fff" d="M145.6 257.13h-9.5v9.485h9.5z"/></g><g opacity=".05"><path fill="#fff" d="M158.21 257.13h-9.5v9.485h9.5z"/></g><g opacity=".05"><path fill="#fff" d="M170.82 257.13h-9.5v9.485h9.5z"/></g><g opacity=".05"><path fill="#fff" d="M183.43 257.13h-9.5v9.485h9.5z"/></g><g opacity=".05"><path fill="#fff" d="M196.04 257.13h-9.5v9.485h9.5z"/></g><g opacity=".05"><path fill="#fff" d="M208.65 257.13h-9.5v9.485h9.5z"/></g><g opacity=".05"><path fill="#fff" d="M221.08 257.13h-9.5v9.485h9.5z"/></g><g opacity=".05"><path fill="#fff" d="M233.69 257.13h-9.5v9.485h9.5z"/></g><g opacity=".05"><path fill="#fff" d="M246.3 257.13h-9.5v9.485h9.5z"/></g><g opacity=".05"><path fill="#fff" d="M258.91 257.13h-9.5v9.485h9.5z"/></g><g opacity=".05"><path fill="#fff" d="M145.6 269.37h-9.5v9.485h9.5z"/></g><g opacity=".05"><path fill="#fff" d="M158.21 269.37h-9.5v9.485h9.5z"/></g><g opacity=".05"><path fill="#fff" d="M170.82 269.37h-9.5v9.485h9.5z"/></g><g opacity=".05"><path fill="#fff" d="M183.43 269.37h-9.5v9.485h9.5z"/></g><g opacity=".05"><path fill="#fff" d="M196.04 269.37h-9.5v9.485h9.5z"/></g><g opacity=".05"><path fill="#fff" d="M208.65 269.37h-9.5v9.485h9.5z"/></g><g opacity=".05"><path fill="#fff" d="M221.08 269.37h-9.5v9.485h9.5z"/></g><g opacity=".05"><path fill="#fff" d="M233.69 269.37h-9.5v9.485h9.5z"/></g><g opacity=".05"><path fill="#fff" d="M246.3 269.37h-9.5v9.485h9.5z"/></g><g opacity=".05"><path fill="#fff" d="M258.91 269.37h-9.5v9.485h9.5z"/></g><g opacity=".05"><path fill="#fff" d="M145.6 281.79h-9.5v9.484h9.5z"/></g><g opacity=".05"><path fill="#fff" d="M158.21 281.79h-9.5v9.484h9.5z"/></g><g opacity=".05"><path fill="#fff" d="M170.82 281.79h-9.5v9.484h9.5z"/></g><g opacity=".05"><path fill="#fff" d="M183.43 281.79h-9.5v9.484h9.5z"/></g><g opacity=".05"><path fill="#fff" d="M196.04 281.79h-9.5v9.484h9.5z"/></g><g opacity=".05"><path fill="#fff" d="M208.65 281.79h-9.5v9.484h9.5z"/></g><g opacity=".05"><path fill="#fff" d="M221.08 281.79h-9.5v9.484h9.5z"/></g><g opacity=".05"><path fill="#fff" d="M233.69 281.79h-9.5v9.484h9.5z"/></g><g opacity=".05"><path fill="#fff" d="M246.3 281.79h-9.5v9.484h9.5z"/></g><g opacity=".05"><path fill="#fff" d="M258.91 281.79h-9.5v9.484h9.5z"/></g><g opacity=".05"><path fill="#fff" d="M145.6 294.2h-9.5v9.484h9.5z"/></g><g opacity=".05"><path fill="#fff" d="M158.21 294.2h-9.5v9.484h9.5z"/></g><g opacity=".05"><path fill="#fff" d="M170.82 294.2h-9.5v9.484h9.5z"/></g><g opacity=".05"><path fill="#fff" d="M183.43 294.2h-9.5v9.484h9.5z"/></g><g opacity=".05"><path fill="#fff" d="M196.04 294.2h-9.5v9.484h9.5z"/></g><g opacity=".05"><path fill="#fff" d="M208.65 294.2h-9.5v9.484h9.5z"/></g><g opacity=".05"><path fill="#fff" d="M221.08 294.2h-9.5v9.484h9.5z"/></g><g opacity=".05"><path fill="#fff" d="M233.69 294.2h-9.5v9.484h9.5z"/></g><g opacity=".05"><path fill="#fff" d="M246.3 294.2h-9.5v9.484h9.5z"/></g><g opacity=".05"><path fill="#fff" d="M258.91 294.2h-9.5v9.484h9.5z"/></g><g opacity=".05"><path fill="#fff" d="M145.6 306.62h-9.5v9.485h9.5z"/></g><g opacity=".05"><path fill="#fff" d="M158.21 306.62h-9.5v9.485h9.5z"/></g><g opacity=".05"><path fill="#fff" d="M170.82 306.62h-9.5v9.485h9.5z"/></g><g opacity=".05"><path fill="#fff" d="M183.43 306.62h-9.5v9.485h9.5z"/></g><g opacity=".05"><path fill="#fff" d="M196.04 306.62h-9.5v9.485h9.5z"/></g><g opacity=".05"><path fill="#fff" d="M208.65 306.62h-9.5v9.485h9.5z"/></g><g opacity=".05"><path fill="#fff" d="M221.08 306.62h-9.5v9.485h9.5z"/></g><g opacity=".05"><path fill="#fff" d="M233.69 306.62h-9.5v9.485h9.5z"/></g><g opacity=".05"><path fill="#fff" d="M246.3 306.62h-9.5v9.485h9.5z"/></g><g opacity=".05"><path fill="#fff" d="M258.91 306.62h-9.5v9.485h9.5z"/></g><g opacity=".05"><path fill="#fff" d="M145.6 319.03h-9.5v9.484h9.5z"/></g><g opacity=".05"><path fill="#fff" d="M158.21 319.03h-9.5v9.484h9.5z"/></g><g opacity=".05"><path fill="#fff" d="M170.82 319.03h-9.5v9.484h9.5z"/></g><g opacity=".05"><path fill="#fff" d="M183.43 319.03h-9.5v9.484h9.5z"/></g><g opacity=".05"><path fill="#fff" d="M196.04 319.03h-9.5v9.484h9.5z"/></g><g opacity=".05"><path fill="#fff" d="M208.65 319.03h-9.5v9.484h9.5z"/></g><g opacity=".05"><path fill="#fff" d="M221.08 319.03h-9.5v9.484h9.5z"/></g><g opacity=".05"><path fill="#fff" d="M233.69 319.03h-9.5v9.484h9.5z"/></g><g opacity=".05"><path fill="#fff" d="M246.3 319.03h-9.5v9.484h9.5z"/></g><g opacity=".05"><path fill="#fff" d="M258.91 319.03h-9.5v9.484h9.5z"/></g><g opacity=".05"><path fill="#fff" d="M145.6 331.28h-9.5v9.484h9.5z"/></g><g opacity=".05"><path fill="#fff" d="M158.21 331.28h-9.5v9.484h9.5z"/></g><g opacity=".05"><path fill="#fff" d="M170.82 331.28h-9.5v9.484h9.5z"/></g><g opacity=".05"><path fill="#fff" d="M183.43 331.28h-9.5v9.484h9.5z"/></g><g opacity=".05"><path fill="#fff" d="M196.04 331.28h-9.5v9.484h9.5z"/></g><g opacity=".05"><path fill="#fff" d="M208.65 331.28h-9.5v9.484h9.5z"/></g><g opacity=".05"><path fill="#fff" d="M221.08 331.28h-9.5v9.484h9.5z"/></g><g opacity=".05"><path fill="#fff" d="M233.69 331.28h-9.5v9.484h9.5z"/></g><g opacity=".05"><path fill="#fff" d="M246.3 331.28h-9.5v9.484h9.5z"/></g><g opacity=".05"><path fill="#fff" d="M258.91 331.28h-9.5v9.484h9.5z"/></g><g opacity=".05"><path fill="#fff" d="M145.6 343.69h-9.5v9.484h9.5z"/></g><g opacity=".05"><path fill="#fff" d="M158.21 343.69h-9.5v9.484h9.5z"/></g><g opacity=".05"><path fill="#fff" d="M170.82 343.69h-9.5v9.484h9.5z"/></g><g opacity=".05"><path fill="#fff" d="M183.43 343.69h-9.5v9.484h9.5z"/></g><g opacity=".05"><path fill="#fff" d="M196.04 343.69h-9.5v9.484h9.5z"/></g><g opacity=".05"><path fill="#fff" d="M208.65 343.69h-9.5v9.484h9.5z"/></g><g opacity=".05"><path fill="#fff" d="M221.08 343.69h-9.5v9.484h9.5z"/></g><g opacity=".05"><path fill="#fff" d="M233.69 343.69h-9.5v9.484h9.5z"/></g><g opacity=".05"><path fill="#fff" d="M246.3 343.69h-9.5v9.484h9.5z"/></g><g opacity=".05"><path fill="#fff" d="M258.91 343.69h-9.5v9.484h9.5z"/></g><g opacity=".05"><path fill="#fff" d="M145.6 356.11h-9.5v9.484h9.5z"/></g><g opacity=".05"><path fill="#fff" d="M158.21 356.11h-9.5v9.484h9.5z"/></g><g opacity=".05"><path fill="#fff" d="M170.82 356.11h-9.5v9.484h9.5z"/></g><g opacity=".05"><path fill="#fff" d="M183.43 356.11h-9.5v9.484h9.5z"/></g><g opacity=".05"><path fill="#fff" d="M196.04 356.11h-9.5v9.484h9.5z"/></g><g opacity=".05"><path fill="#fff" d="M208.65 356.11h-9.5v9.484h9.5z"/></g><g opacity=".05"><path fill="#fff" d="M221.08 356.11h-9.5v9.484h9.5z"/></g><g opacity=".05"><path fill="#fff" d="M233.69 356.11h-9.5v9.484h9.5z"/></g><g opacity=".05"><path fill="#fff" d="M246.3 356.11h-9.5v9.484h9.5z"/></g><g opacity=".05"><path fill="#fff" d="M258.91 356.11h-9.5v9.484h9.5z"/></g><g opacity=".05"><path fill="#fff" d="M145.6 368.53h-9.5v9.485h9.5z"/></g><g opacity=".05"><path fill="#fff" d="M158.21 368.53h-9.5v9.485h9.5z"/></g><g opacity=".05"><path fill="#fff" d="M170.82 368.53h-9.5v9.485h9.5z"/></g><g opacity=".05"><path fill="#fff" d="M183.43 368.53h-9.5v9.485h9.5z"/></g><g opacity=".05"><path fill="#fff" d="M196.04 368.53h-9.5v9.485h9.5z"/></g><g opacity=".05"><path fill="#fff" d="M208.65 368.53h-9.5v9.485h9.5z"/></g><g opacity=".05"><path fill="#fff" d="M221.08 368.53h-9.5v9.485h9.5z"/></g><g opacity=".05"><path fill="#fff" d="M233.69 368.53h-9.5v9.485h9.5z"/></g><g opacity=".05"><path fill="#fff" d="M246.3 368.53h-9.5v9.485h9.5z"/></g><g opacity=".05"><path fill="#fff" d="M258.91 368.53h-9.5v9.485h9.5z"/></g><g opacity=".05"><path fill="#fff" d="M145.6 380.94h-9.5v9.484h9.5z"/></g><g opacity=".05"><path fill="#fff" d="M158.21 380.94h-9.5v9.484h9.5z"/></g><g opacity=".05"><path fill="#fff" d="M170.82 380.94h-9.5v9.484h9.5z"/></g><g opacity=".05"><path fill="#fff" d="M183.43 380.94h-9.5v9.484h9.5z"/></g><g opacity=".05"><path fill="#fff" d="M196.04 380.94h-9.5v9.484h9.5z"/></g><g opacity=".05"><path fill="#fff" d="M208.65 380.94h-9.5v9.484h9.5z"/></g><g opacity=".05"><path fill="#fff" d="M221.08 380.94h-9.5v9.484h9.5z"/></g><g opacity=".05"><path fill="#fff" d="M233.69 380.94h-9.5v9.484h9.5z"/></g><g opacity=".05"><path fill="#fff" d="M246.3 380.94h-9.5v9.484h9.5z"/></g><g opacity=".05"><path fill="#fff" d="M258.91 380.94h-9.5v9.484h9.5z"/></g><g opacity=".05"><path fill="#fff" d="M145.6 393.19h-9.5v9.484h9.5z"/></g><g opacity=".05"><path fill="#fff" d="M158.21 393.19h-9.5v9.484h9.5z"/></g><g opacity=".05"><path fill="#fff" d="M170.82 393.19h-9.5v9.484h9.5z"/></g><g opacity=".05"><path fill="#fff" d="M183.43 393.19h-9.5v9.484h9.5z"/></g><g opacity=".05"><path fill="#fff" d="M196.04 393.19h-9.5v9.484h9.5z"/></g><g opacity=".05"><path fill="#fff" d="M208.65 393.19h-9.5v9.484h9.5z"/></g><g opacity=".05"><path fill="#fff" d="M221.08 393.19h-9.5v9.484h9.5z"/></g><g opacity=".05"><path fill="#fff" d="M233.69 393.19h-9.5v9.484h9.5z"/></g><g opacity=".05"><path fill="#fff" d="M246.3 393.19h-9.5v9.484h9.5z"/></g><g opacity=".05"><path fill="#fff" d="M258.91 393.19h-9.5v9.484h9.5z"/></g><g opacity=".05"><path fill="#fff" d="M271.52 393.19h-9.5v9.484h9.5z"/></g><g opacity=".05"><path fill="#fff" d="M145.6 405.6h-9.5v9.485h9.5z"/></g><g opacity=".05"><path fill="#fff" d="M158.21 405.6h-9.5v9.485h9.5z"/></g><g opacity=".05"><path fill="#fff" d="M170.82 405.6h-9.5v9.485h9.5z"/></g><g opacity=".05"><path fill="#fff" d="M183.43 405.6h-9.5v9.485h9.5z"/></g><g opacity=".05"><path fill="#fff" d="M196.04 405.6h-9.5v9.485h9.5z"/></g><g opacity=".05"><path fill="#fff" d="M208.65 405.6h-9.5v9.485h9.5z"/></g><g opacity=".05"><path fill="#fff" d="M221.08 405.6h-9.5v9.485h9.5z"/></g><g opacity=".05"><path fill="#fff" d="M233.69 405.6h-9.5v9.485h9.5z"/></g><g opacity=".05"><path fill="#fff" d="M246.3 405.6h-9.5v9.485h9.5z"/></g><g opacity=".05"><path fill="#fff" d="M258.91 405.6h-9.5v9.485h9.5z"/></g><g opacity=".05"><path fill="#fff" d="M271.52 405.6h-9.5v9.485h9.5z"/></g><g opacity=".05"><path fill="#fff" d="M145.6 418.02h-9.5v9.485h9.5z"/></g><g opacity=".05"><path fill="#fff" d="M158.21 418.02h-9.5v9.485h9.5z"/></g><g opacity=".05"><path fill="#fff" d="M170.82 418.02h-9.5v9.485h9.5z"/></g><g opacity=".05"><path fill="#fff" d="M183.43 418.02h-9.5v9.485h9.5z"/></g><g opacity=".05"><path fill="#fff" d="M196.04 418.02h-9.5v9.485h9.5z"/></g><g opacity=".05"><path fill="#fff" d="M208.65 418.02h-9.5v9.485h9.5z"/></g><g opacity=".05"><path fill="#fff" d="M221.08 418.02h-9.5v9.485h9.5z"/></g><g opacity=".05"><path fill="#fff" d="M233.69 418.02h-9.5v9.485h9.5z"/></g><g opacity=".05"><path fill="#fff" d="M246.3 418.02h-9.5v9.485h9.5z"/></g><g opacity=".05"><path fill="#fff" d="M258.91 418.02h-9.5v9.485h9.5z"/></g><g opacity=".05"><path fill="#fff" d="M271.52 418.02h-9.5v9.485h9.5z"/></g><g opacity=".05"><path fill="#fff" d="M145.6 430.43h-9.5v9.484h9.5z"/></g><g opacity=".05"><path fill="#fff" d="M158.21 430.43h-9.5v9.484h9.5z"/></g><g opacity=".05"><path fill="#fff" d="M170.82 430.43h-9.5v9.484h9.5z"/></g><g opacity=".05"><path fill="#fff" d="M183.43 430.43h-9.5v9.484h9.5z"/></g><g opacity=".05"><path fill="#fff" d="M196.04 430.43h-9.5v9.484h9.5z"/></g><g opacity=".05"><path fill="#fff" d="M208.65 430.43h-9.5v9.484h9.5z"/></g><g opacity=".05"><path fill="#fff" d="M221.08 430.43h-9.5v9.484h9.5z"/></g><g opacity=".05"><path fill="#fff" d="M233.69 430.43h-9.5v9.484h9.5z"/></g><g opacity=".05"><path fill="#fff" d="M246.3 430.43h-9.5v9.484h9.5z"/></g><g opacity=".05"><path fill="#fff" d="M258.91 430.43h-9.5v9.484h9.5z"/></g><g opacity=".05"><path fill="#fff" d="M271.52 430.43h-9.5v9.484h9.5z"/></g><g opacity=".05"><path fill="#fff" d="M145.6 442.85h-9.5v9.485h9.5z"/></g><g opacity=".05"><path fill="#fff" d="M158.21 442.85h-9.5v9.485h9.5z"/></g><g opacity=".05"><path fill="#fff" d="M170.82 442.85h-9.5v9.485h9.5z"/></g><g opacity=".05"><path fill="#fff" d="M183.43 442.85h-9.5v9.485h9.5z"/></g><g opacity=".05"><path fill="#fff" d="M196.04 442.85h-9.5v9.485h9.5z"/></g><g opacity=".05"><path fill="#fff" d="M208.65 442.85h-9.5v9.485h9.5z"/></g><g opacity=".05"><path fill="#fff" d="M221.08 442.85h-9.5v9.485h9.5z"/></g><g opacity=".05"><path fill="#fff" d="M233.69 442.85h-9.5v9.485h9.5z"/></g><g opacity=".05"><path fill="#fff" d="M246.3 442.85h-9.5v9.485h9.5z"/></g><g opacity=".05"><path fill="#fff" d="M258.91 442.85h-9.5v9.485h9.5z"/></g><g opacity=".05"><path fill="#fff" d="M271.52 442.85h-9.5v9.485h9.5z"/></g><g opacity=".05"><path fill="#fff" d="M36.27 244.71h-9.5v9.484h9.5z"/></g><g opacity=".05"><path fill="#fff" d="M49.05 244.71h-9.5v9.484h9.5z"/></g><g opacity=".05"><path fill="#fff" d="M62.01 244.71h-9.5v9.484h9.5z"/></g><g opacity=".05"><path fill="#fff" d="M74.96 244.71h-9.5v9.484h9.5z"/></g><g opacity=".05"><path fill="#fff" d="M87.74 244.71h-9.5v9.484h9.5z"/></g><g opacity=".05"><path fill="#fff" d="M36.27 257.13h-9.5v9.485h9.5z"/></g><g opacity=".05"><path fill="#fff" d="M49.05 257.13h-9.5v9.485h9.5z"/></g><g opacity=".05"><path fill="#fff" d="M62.01 257.13h-9.5v9.485h9.5z"/></g><g opacity=".05"><path fill="#fff" d="M74.96 257.13h-9.5v9.485h9.5z"/></g><g opacity=".05"><path fill="#fff" d="M87.74 257.13h-9.5v9.485h9.5z"/></g><g opacity=".05"><path fill="#fff" d="M36.27 269.37h-9.5v9.485h9.5z"/></g><g opacity=".05"><path fill="#fff" d="M49.05 269.37h-9.5v9.485h9.5z"/></g><g opacity=".05"><path fill="#fff" d="M62.01 269.37h-9.5v9.485h9.5z"/></g><g opacity=".05"><path fill="#fff" d="M74.96 269.37h-9.5v9.485h9.5z"/></g><g opacity=".05"><path fill="#fff" d="M87.74 269.37h-9.5v9.485h9.5z"/></g><g opacity=".05"><path fill="#fff" d="M36.27 281.79h-9.5v9.484h9.5z"/></g><g opacity=".05"><path fill="#fff" d="M49.05 281.79h-9.5v9.484h9.5z"/></g><g opacity=".05"><path fill="#fff" d="M62.01 281.79h-9.5v9.484h9.5z"/></g><g opacity=".05"><path fill="#fff" d="M74.96 281.79h-9.5v9.484h9.5z"/></g><g opacity=".05"><path fill="#fff" d="M87.74 281.79h-9.5v9.484h9.5z"/></g><g opacity=".05"><path fill="#fff" d="M36.27 294.2h-9.5v9.484h9.5z"/></g><g opacity=".05"><path fill="#fff" d="M49.05 294.2h-9.5v9.484h9.5z"/></g><g opacity=".05"><path fill="#fff" d="M62.01 294.2h-9.5v9.484h9.5z"/></g><g opacity=".05"><path fill="#fff" d="M74.96 294.2h-9.5v9.484h9.5z"/></g><g opacity=".05"><path fill="#fff" d="M87.74 294.2h-9.5v9.484h9.5z"/></g><g opacity=".05"><path fill="#fff" d="M36.27 306.62h-9.5v9.485h9.5z"/></g><g opacity=".05"><path fill="#fff" d="M49.05 306.62h-9.5v9.485h9.5z"/></g><g opacity=".05"><path fill="#fff" d="M62.01 306.62h-9.5v9.485h9.5z"/></g><g opacity=".05"><path fill="#fff" d="M74.96 306.62h-9.5v9.485h9.5z"/></g><g opacity=".05"><path fill="#fff" d="M87.74 306.62h-9.5v9.485h9.5z"/></g><g opacity=".05"><path fill="#fff" d="M36.27 319.03h-9.5v9.484h9.5z"/></g><g opacity=".05"><path fill="#fff" d="M49.05 319.03h-9.5v9.484h9.5z"/></g><g opacity=".05"><path fill="#fff" d="M62.01 319.03h-9.5v9.484h9.5z"/></g><g opacity=".05"><path fill="#fff" d="M74.96 319.03h-9.5v9.484h9.5z"/></g><g opacity=".05"><path fill="#fff" d="M87.74 319.03h-9.5v9.484h9.5z"/></g><g opacity=".05"><path fill="#fff" d="M36.27 331.28h-9.5v9.484h9.5z"/></g><g opacity=".05"><path fill="#fff" d="M49.05 331.28h-9.5v9.484h9.5z"/></g><g opacity=".05"><path fill="#fff" d="M62.01 331.28h-9.5v9.484h9.5z"/></g><g opacity=".05"><path fill="#fff" d="M74.96 331.28h-9.5v9.484h9.5z"/></g><g opacity=".05"><path fill="#fff" d="M87.74 331.28h-9.5v9.484h9.5z"/></g><g opacity=".05"><path fill="#fff" d="M36.27 343.69h-9.5v9.484h9.5z"/></g><g opacity=".05"><path fill="#fff" d="M49.05 343.69h-9.5v9.484h9.5z"/></g><g opacity=".05"><path fill="#fff" d="M62.01 343.69h-9.5v9.484h9.5z"/></g><g opacity=".05"><path fill="#fff" d="M74.96 343.69h-9.5v9.484h9.5z"/></g><g opacity=".05"><path fill="#fff" d="M87.74 343.69h-9.5v9.484h9.5z"/></g><g opacity=".05"><path fill="#fff" d="M36.27 356.11h-9.5v9.484h9.5z"/></g><g opacity=".05"><path fill="#fff" d="M49.05 356.11h-9.5v9.484h9.5z"/></g><g opacity=".05"><path fill="#fff" d="M62.01 356.11h-9.5v9.484h9.5z"/></g><g opacity=".05"><path fill="#fff" d="M74.96 356.11h-9.5v9.484h9.5z"/></g><g opacity=".05"><path fill="#fff" d="M87.74 356.11h-9.5v9.484h9.5z"/></g><g opacity=".05"><path fill="#fff" d="M36.27 368.53h-9.5v9.485h9.5z"/></g><g opacity=".05"><path fill="#fff" d="M49.05 368.53h-9.5v9.485h9.5z"/></g><g opacity=".05"><path fill="#fff" d="M62.01 368.53h-9.5v9.485h9.5z"/></g><g opacity=".05"><path fill="#fff" d="M74.96 368.53h-9.5v9.485h9.5z"/></g><g opacity=".05"><path fill="#fff" d="M87.74 368.53h-9.5v9.485h9.5z"/></g><g opacity=".05"><path fill="#fff" d="M36.27 380.94h-9.5v9.484h9.5z"/></g><g opacity=".05"><path fill="#fff" d="M49.05 380.94h-9.5v9.484h9.5z"/></g><g opacity=".05"><path fill="#fff" d="M62.01 380.94h-9.5v9.484h9.5z"/></g><g opacity=".05"><path fill="#fff" d="M74.96 380.94h-9.5v9.484h9.5z"/></g><g opacity=".05"><path fill="#fff" d="M87.74 380.94h-9.5v9.484h9.5z"/></g><g opacity=".05"><path fill="#fff" d="M36.27 393.19h-9.5v9.484h9.5z"/></g><g opacity=".05"><path fill="#fff" d="M49.05 393.19h-9.5v9.484h9.5z"/></g><g opacity=".05"><path fill="#fff" d="M62.01 393.19h-9.5v9.484h9.5z"/></g><g opacity=".05"><path fill="#fff" d="M74.96 393.19h-9.5v9.484h9.5z"/></g><g opacity=".05"><path fill="#fff" d="M87.74 393.19h-9.5v9.484h9.5z"/></g><g opacity=".05"><path fill="#fff" d="M36.27 405.6h-9.5v9.485h9.5z"/></g><g opacity=".05"><path fill="#fff" d="M49.05 405.6h-9.5v9.485h9.5z"/></g><g opacity=".05"><path fill="#fff" d="M62.01 405.6h-9.5v9.485h9.5z"/></g><g opacity=".05"><path fill="#fff" d="M74.96 405.6h-9.5v9.485h9.5z"/></g><g opacity=".05"><path fill="#fff" d="M87.74 405.6h-9.5v9.485h9.5z"/></g><g opacity=".05"><path fill="#fff" d="M36.27 418.02h-9.5v9.485h9.5z"/></g><g opacity=".05"><path fill="#fff" d="M49.05 418.02h-9.5v9.485h9.5z"/></g><g opacity=".05"><path fill="#fff" d="M62.01 418.02h-9.5v9.485h9.5z"/></g><g opacity=".05"><path fill="#fff" d="M74.96 418.02h-9.5v9.485h9.5z"/></g><g opacity=".05"><path fill="#fff" d="M87.74 418.02h-9.5v9.485h9.5z"/></g><g opacity=".05"><path fill="#fff" d="M36.27 430.43h-9.5v9.484h9.5z"/></g><g opacity=".05"><path fill="#fff" d="M49.05 430.43h-9.5v9.484h9.5z"/></g><g opacity=".05"><path fill="#fff" d="M62.01 430.43h-9.5v9.484h9.5z"/></g><g opacity=".05"><path fill="#fff" d="M74.96 430.43h-9.5v9.484h9.5z"/></g><g opacity=".05"><path fill="#fff" d="M87.74 430.43h-9.5v9.484h9.5z"/></g><g opacity=".05"><path fill="#fff" d="M36.27 442.85h-9.5v9.485h9.5z"/></g><g opacity=".05"><path fill="#fff" d="M49.05 442.85h-9.5v9.485h9.5z"/></g><g opacity=".05"><path fill="#fff" d="M62.01 442.85h-9.5v9.485h9.5z"/></g><g opacity=".05"><path fill="#fff" d="M74.96 442.85h-9.5v9.485h9.5z"/></g><g opacity=".05"><path fill="#fff" d="M87.74 442.85h-9.5v9.485h9.5z"/></g><g opacity=".05"><path fill="#333" d="M100.697 198.32H12.61v24.142h88.087z"/></g><g opacity=".05"><path fill="#4d4d4d" d="M266.68 198.32H140.94v24.142h125.74z"/></g><g opacity=".05"><path fill="#e6e6e6" d="M164.772 154.87H114.51v18.624h50.262z"/></g><g opacity=".05"><path fill="#4d4d4d" d="M139.727 136.24H114.51v18.624h25.217z"/></g><g opacity=".05"><path fill="#333" d="M114.517 136.24H89.3v18.624h25.217z"/></g><g opacity=".05"><path fill="#b3b3b3" d="M114.517 154.87H76v18.624h38.517z"/></g><g opacity=".05"><path fill="#333" d="M112.79 136.239l1.727-42.939 1.382 42.939z"/></g><g opacity=".05"><g opacity=".01"><path fill="#fff" d="M271.52 232.29h-9.5v9.485h9.5z"/></g><g opacity=".01"><path fill="#fff" d="M271.52 244.71h-9.5v9.484h9.5z"/></g><g opacity=".01"><path fill="#fff" d="M271.52 257.13h-9.5v9.484h9.5z"/></g><g opacity=".02"><path fill="#fff" d="M271.52 269.37h-9.5v9.485h9.5z"/></g><g opacity=".01"><path fill="#fff" d="M271.52 281.79h-9.5v9.484h9.5z"/></g><g opacity=".02"><path fill="#fff" d="M271.52 294.2h-9.5v9.484h9.5z"/></g><g opacity=".02"><path fill="#fff" d="M271.52 306.62h-9.5v9.485h9.5z"/></g><g opacity=".01"><path fill="#fff" d="M271.52 319.03h-9.5v9.484h9.5z"/></g><g opacity=".01"><path fill="#fff" d="M271.52 331.28h-9.5v9.484h9.5z"/></g><g opacity=".02"><path fill="#fff" d="M271.52 356.11h-9.5v9.485h9.5z"/></g><g opacity=".01"><path fill="#fff" d="M271.52 368.53h-9.5v9.485h9.5z"/></g><g opacity=".05"><path fill="#fff" d="M271.52 380.94h-9.5v9.485h9.5z"/></g></g></g><g opacity=".05"><g opacity=".05"><path fill="#333" d="M655.128 313.57H598.13v133.3h56.998z"/></g><g opacity=".05"><path fill="#333" d="M624.038 306.84H598.13v7.588h25.908z"/></g><g opacity=".05"><path fill="#333" d="M613.157 302.53H598.13v4.311h15.027z"/></g><g opacity=".05"><g opacity=".01"><path fill="#fff" d="M631.297 339.95h-9.327v6.898h9.327z"/></g><g opacity=".01"><path fill="#fff" d="M631.297 374.1h-9.327v6.898h9.327z"/></g><g opacity=".01"><path fill="#fff" d="M631.297 408.24h-9.327v6.898h9.327z"/></g><g opacity=".01"><path fill="#fff" d="M631.297 425.31h-9.327v6.898h9.327z"/></g></g></g><g opacity=".05"><g opacity=".05"><path fill="#333" d="M512.12 328.05h-78.07v71.392h78.07z"/></g><g opacity=".05"><path fill="#333" d="M499.85 321.67h-53.37v30.695h53.37z"/></g></g><g opacity=".05"><g opacity=".05"><path fill="#333" d="M517.82 373.06h-78.07v71.392h78.07z"/></g><g opacity=".05"><path fill="#333" d="M505.38 366.68h-53.37v30.695h53.37z"/></g></g><g opacity=".05"><g opacity=".05"><path fill="#333" d="M621.79 363.58h-78.07v82.256h78.07z"/></g><g opacity=".05"><path fill="#333" d="M609.53 356.33h-53.37v35.524h53.37z"/></g></g><g opacity=".05"><g opacity=".05"><path fill="#333" d="M883.12 388.58h-78.07v79.497h78.07z"/></g><g opacity=".05"><path fill="#333" d="M870.86 381.51h-53.37v34.316h53.37z"/></g></g><g opacity=".05"><g opacity=".05"><path fill="#333" d="M713.854 224.41H626.63v221.246h87.224z"/></g><g opacity=".05"><g opacity=".02"><path fill="#e6e6e6" d="M652.022 234.42H630.95v3.966h21.072z"/></g><g opacity=".02"><path fill="#e6e6e6" d="M680.862 234.42H659.79v3.966h21.072z"/></g><g opacity=".03"><path fill="#e6e6e6" d="M709.532 234.42H688.46v3.966h21.072z"/></g><g opacity=".03"><path fill="#e6e6e6" d="M652.022 243.56H630.95v3.966h21.072z"/></g><g opacity=".01"><path fill="#e6e6e6" d="M680.862 243.56H659.79v3.966h21.072z"/></g><g opacity=".01"><path fill="#e6e6e6" d="M652.022 252.7H630.95v3.966h21.072z"/></g><g opacity=".02"><path fill="#e6e6e6" d="M680.862 252.7H659.79v3.966h21.072z"/></g><g opacity=".02"><path fill="#e6e6e6" d="M709.532 252.7H688.46v3.966h21.072z"/></g><g opacity=".01"><path fill="#e6e6e6" d="M652.022 261.84H630.95v3.966h21.072z"/></g><g opacity=".01"><path fill="#e6e6e6" d="M709.532 261.84H688.46v3.966h21.072z"/></g><g opacity=".01"><path fill="#e6e6e6" d="M652.022 270.97H630.95v3.966h21.072z"/></g><g opacity=".01"><path fill="#e6e6e6" d="M680.862 270.97H659.79v3.966h21.072z"/></g><g opacity=".03"><path fill="#e6e6e6" d="M709.532 270.97H688.46v3.966h21.072z"/></g><g opacity=".02"><path fill="#e6e6e6" d="M652.022 280.11H630.95v3.966h21.072z"/></g><g opacity=".01"><path fill="#e6e6e6" d="M680.862 280.11H659.79v3.966h21.072z"/></g><g opacity=".02"><path fill="#e6e6e6" d="M709.532 280.11H688.46v3.966h21.072z"/></g><g opacity=".01"><path fill="#e6e6e6" d="M652.022 289.25H630.95v3.966h21.072z"/></g><g opacity=".01"><path fill="#e6e6e6" d="M680.862 289.25H659.79v3.966h21.072z"/></g><g opacity=".02"><path fill="#e6e6e6" d="M652.022 298.39H630.95v3.966h21.072z"/></g><g opacity=".03"><path fill="#e6e6e6" d="M680.862 298.39H659.79v3.966h21.072z"/></g><g opacity=".03"><path fill="#e6e6e6" d="M709.532 298.39H688.46v3.966h21.072z"/></g><g opacity=".01"><path fill="#e6e6e6" d="M652.022 307.53H630.95v3.966h21.072z"/></g><g opacity=".02"><path fill="#e6e6e6" d="M680.862 307.53H659.79v3.966h21.072z"/></g><g opacity=".02"><path fill="#e6e6e6" d="M709.532 307.53H688.46v3.966h21.072z"/></g><g opacity=".03"><path fill="#e6e6e6" d="M652.022 316.67H630.95v3.966h21.072z"/></g><g opacity=".01"><path fill="#e6e6e6" d="M680.862 316.67H659.79v3.966h21.072z"/></g><g opacity=".03"><path fill="#e6e6e6" d="M709.532 316.67H688.46v3.966h21.072z"/></g><g opacity=".01"><path fill="#e6e6e6" d="M680.862 325.81H659.79v3.966h21.072z"/></g><g opacity=".01"><path fill="#e6e6e6" d="M709.532 325.81H688.46v3.966h21.072z"/></g><g opacity=".03"><path fill="#e6e6e6" d="M652.022 334.95H630.95v3.966h21.072z"/></g><g opacity=".02"><path fill="#e6e6e6" d="M680.862 334.95H659.79v3.966h21.072z"/></g><g opacity=".01"><path fill="#e6e6e6" d="M709.532 334.95H688.46v3.966h21.072z"/></g><g opacity=".01"><path fill="#e6e6e6" d="M652.022 344.09H630.95v3.966h21.072z"/></g><g opacity=".02"><path fill="#e6e6e6" d="M680.862 344.09H659.79v3.966h21.072z"/></g><g opacity=".01"><path fill="#e6e6e6" d="M709.532 344.09H688.46v3.966h21.072z"/></g><g opacity=".02"><path fill="#e6e6e6" d="M652.022 353.23H630.95v3.966h21.072z"/></g><g opacity=".02"><path fill="#e6e6e6" d="M680.862 353.23H659.79v3.966h21.072z"/></g><g opacity=".01"><path fill="#e6e6e6" d="M709.532 353.23H688.46v3.966h21.072z"/></g><g opacity=".02"><path fill="#e6e6e6" d="M652.022 362.37H630.95v3.966h21.072z"/></g><g opacity=".01"><path fill="#e6e6e6" d="M680.862 362.37H659.79v3.966h21.072z"/></g><g opacity=".01"><path fill="#e6e6e6" d="M709.532 362.37H688.46v3.966h21.072z"/></g><g opacity=".01"><path fill="#e6e6e6" d="M680.862 371.51H659.79v3.966h21.072z"/></g><g opacity=".01"><path fill="#e6e6e6" d="M652.022 380.65H630.95v3.966h21.072z"/></g><g opacity=".01"><path fill="#e6e6e6" d="M680.862 380.65H659.79v3.966h21.072z"/></g><g opacity=".02"><path fill="#e6e6e6" d="M709.532 380.65H688.46v3.966h21.072z"/></g><g opacity=".03"><path fill="#e6e6e6" d="M652.022 389.79H630.95v3.966h21.072z"/></g><g opacity=".02"><path fill="#e6e6e6" d="M680.862 389.79H659.79v3.966h21.072z"/></g><g opacity=".01"><path fill="#e6e6e6" d="M709.532 389.79H688.46v3.966h21.072z"/></g><g opacity=".03"><path fill="#e6e6e6" d="M652.022 398.93H630.95v3.966h21.072z"/></g><g opacity=".03"><path fill="#e6e6e6" d="M680.862 398.93H659.79v3.966h21.072z"/></g><g opacity=".03"><path fill="#e6e6e6" d="M680.862 408.07H659.79v3.966h21.072z"/></g><g opacity=".05"><path fill="#e6e6e6" d="M709.532 408.07H688.46v3.966h21.072z"/></g></g><g opacity=".03"><path fill="#e6e6e6" d="M653.402 234.42h-1.382v177.618h1.382z"/></g><g opacity=".03"><path fill="#e6e6e6" d="M688.462 234.42h-1.382v177.618h1.382z"/></g><g opacity=".05"><path fill="#4d4d4d" d="M757.375 224.41H713.85v221.246h43.526z"/></g><g opacity=".05"><g opacity=".03"><path fill="#e6e6e6" d="M750.987 234.42H718.17v3.966h32.817z"/></g><g opacity=".04"><path fill="#e6e6e6" d="M750.987 243.56H718.17v3.966h32.817z"/></g><g opacity=".01"><path fill="#e6e6e6" d="M750.987 252.7H718.17v3.966h32.817z"/></g><g opacity=".04"><path fill="#e6e6e6" d="M750.987 261.84H718.17v3.966h32.817z"/></g><g opacity=".03"><path fill="#e6e6e6" d="M750.987 270.97H718.17v3.966h32.817z"/></g><g opacity=".01"><path fill="#e6e6e6" d="M750.987 280.11H718.17v3.966h32.817z"/></g><g opacity=".05"><path fill="#e6e6e6" d="M750.987 289.25H718.17v3.966h32.817z"/></g><g opacity=".03"><path fill="#e6e6e6" d="M750.987 307.53H718.17v3.966h32.817z"/></g><g opacity=".03"><path fill="#e6e6e6" d="M750.987 316.67H718.17v3.966h32.817z"/></g><g opacity=".05"><path fill="#e6e6e6" d="M750.987 325.81H718.17v3.966h32.817z"/></g><g opacity=".04"><path fill="#e6e6e6" d="M750.987 334.95H718.17v3.966h32.817z"/></g><g opacity=".04"><path fill="#e6e6e6" d="M750.987 344.09H718.17v3.966h32.817z"/></g><g opacity=".04"><path fill="#e6e6e6" d="M750.987 353.23H718.17v3.966h32.817z"/></g><g opacity=".02"><path fill="#e6e6e6" d="M750.987 362.37H718.17v3.966h32.817z"/></g><g opacity=".01"><path fill="#e6e6e6" d="M750.987 371.51H718.17v3.966h32.817z"/></g><g opacity=".02"><path fill="#e6e6e6" d="M750.987 380.65H718.17v3.966h32.817z"/></g><g opacity=".03"><path fill="#e6e6e6" d="M750.987 389.79H718.17v3.966h32.817z"/></g><g opacity=".02"><path fill="#e6e6e6" d="M750.987 398.93H718.17v3.966h32.817z"/></g><g opacity=".04"><path fill="#e6e6e6" d="M750.987 408.07H718.17v3.966h32.817z"/></g></g><g opacity=".05"><path fill="#333" d="M698.48 212.69v11.726H642V212.69zm-43.871 3.966h-5.873v3.966h5.873zm9.154 0h-5.7v3.966h5.7zm9.327 0h-5.7v3.966h5.7zm9.327 0h-5.873v3.966h5.873zm9.326 0h-5.872v3.966h5.872z"/></g><g opacity=".05"><path fill="#333" d="M708.845 216.66h-1.555v3.966h1.555z"/></g><g opacity=".05"><path fill="#4d4d4d" d="M725.079 212.69v11.726H698.48V212.69zm-16.236 3.966h-5.7v3.966h5.7zm12.263 0h-5.7v3.966h5.7z"/></g><g opacity=".05"><path fill="#333" d="M720.935 216.66h-1.555v3.966h1.555z"/></g></g><g opacity=".05"><path fill="#333" d="M725.43 460.667H607.98L725.43 374.1z"/></g><g opacity=".05"><g opacity=".05"><path fill="#4d4d4d" d="M550.29 177.51h-9.5v36.04h9.5z"/></g><g opacity=".05"><path fill="#333" d="M540.962 177.51h-9.672v36.04h9.672z"/></g><g opacity=".05"><path fill="#666" d="M560.132 177.51h-9.672v36.04h9.672z"/></g><g opacity=".05"><path fill="#666" d="M588.114 238.21H561.17v205.554h26.944z"/></g><g opacity=".05"><path fill="#333" d="M529.56 238.21h-23.49v205.554h23.49z"/></g><g opacity=".05"><path fill="#4d4d4d" d="M561.17 238.21h-31.78v205.554h31.78z"/></g><g opacity=".05"><g opacity=".03"><path fill="#e6e6e6" d="M512.804 244.25h-3.454v196.759h3.454z"/></g><g opacity=".03"><path fill="#e6e6e6" d="M519.544 244.25h-3.454v196.759h3.454z"/></g><g opacity=".03"><path fill="#e6e6e6" d="M526.274 244.25h-3.454v196.759h3.454z"/></g></g><g opacity=".05"><g opacity=".05"><path fill="#e6e6e6" d="M566.524 244.25h-3.454v196.759h3.454z"/></g><g opacity=".05"><path fill="#e6e6e6" d="M573.254 244.25H569.8v196.759h3.454z"/></g><g opacity=".05"><path fill="#e6e6e6" d="M586.385 244.25h-3.455v196.759h3.455z"/></g><g opacity=".05"><path fill="#e6e6e6" d="M579.994 244.25h-3.454v196.759h3.454z"/></g></g><g opacity=".05"><g opacity=".04"><path fill="#e6e6e6" d="M533.36 244.25h23.835v196.759H533.36zm3.8 193.31h16.236V247.699H537.16z"/></g><g opacity=".04"><path fill="#e6e6e6" d="M540.27 250.8h10.19v183.481h-10.19zm3.454 179.17h3.282V255.111h-3.282z"/></g><g opacity=".04"><path fill="#e6e6e6" d="M545.62 255.11h-.69v174.859h.69z"/></g></g><g opacity=".05"><path fill="#4d4d4d" d="M557.545 202.17H533.71v36.041h23.835z"/></g><g opacity=".05"><path fill="#4d4d4d" d="M557.545 202.17H533.71v36.041h23.835z"/></g><g opacity=".05"><path fill="#666" d="M581.375 202.17H557.54v36.041h23.835z"/></g><g opacity=".05"><path fill="#333" d="M533.705 202.17H509.87v36.041h23.835z"/></g><g opacity=".05"><path fill="gray" d="M559.962 177.51H531.29l9.5 6.553h9.672z"/></g></g><g opacity=".05"><g opacity=".05"><path fill="#4d4d4d" d="M1072.418 164.23H1058.6v40.525h13.818z"/></g><g opacity=".05"><path fill="#333" d="M1058.428 164.23h-13.818v40.525h13.818z"/></g><g opacity=".05"><path fill="#666" d="M1086.238 164.23h-13.818v40.525h13.818z"/></g><g opacity=".05"><path fill="#666" d="M1127.005 232.69h-39.035v231.593h39.035z"/></g><g opacity=".05"><path fill="#333" d="M1042.023 232.69h-33.853v231.593h33.853z"/></g><g opacity=".05"><path fill="#4d4d4d" d="M1087.964 232.69h-45.944v231.593h45.944z"/></g><g opacity=".02"><path fill="#e6e6e6" d="M1017.839 239.59h-5.009v221.591h5.009z"/></g><g opacity=".02"><path fill="#e6e6e6" d="M1027.689 239.59h-5.009v221.591h5.009z"/></g><g opacity=".02"><path fill="#e6e6e6" d="M1037.529 239.59h-5.009v221.591h5.009z"/></g><g opacity=".05"><g opacity=".05"><path fill="#e6e6e6" d="M1095.739 239.59h-5.009v221.591h5.009z"/></g><g opacity=".05"><path fill="#e6e6e6" d="M1105.579 239.59h-5.009v221.591h5.009z"/></g><g opacity=".05"><path fill="#e6e6e6" d="M1124.409 239.59h-5.009v221.591h5.009z"/></g><g opacity=".05"><path fill="#e6e6e6" d="M1115.259 239.59h-5.009v221.591h5.009z"/></g></g><g opacity=".05"><path fill="#e6e6e6" d="M1047.89 239.59h34.544v221.591h-34.544zm5.354 217.797h23.49V243.384h-23.49z"/></g><g opacity=".05"><path fill="#e6e6e6" d="M1057.57 247.01h14.854v206.761h-14.854zm5.182 201.932h4.663V251.838h-4.663z"/></g><g opacity=".05"><path fill="#e6e6e6" d="M1065.514 251.83h-.864v197.104h.864z"/></g><g opacity=".05"><path fill="#4d4d4d" d="M1082.784 192.17h-34.544v40.525h34.544z"/></g><g opacity=".05"><path fill="#4d4d4d" d="M1082.784 192.17h-34.544v40.525h34.544z"/></g><g opacity=".05"><path fill="#666" d="M1117.324 192.17h-34.544v40.525h34.544z"/></g><g opacity=".05"><path fill="#333" d="M1048.414 192.17h-34.544v40.525h34.544z"/></g><g opacity=".05"><path fill="gray" d="M1086.408 164.23h-41.798l13.99 7.415h13.818z"/></g></g><g opacity=".05"><g opacity=".05"><path fill="#e6e6e6" d="M972.758 264.77H878.28v31.385h94.478z"/></g><g opacity=".05"><path fill="#b3b3b3" d="M915.415 264.77H878.28v31.385h37.135z"/></g><g opacity=".05"><path fill="#333" d="M915.416 296.32H842.01v152.441h73.406z"/></g><g opacity=".05"><path fill="#4d4d4d" d="M1030.106 296.32H915.42v152.441h114.686z"/></g><g opacity=".05"><path fill="#333" d="M906.44 280.8h-56.48v15.52h56.48z"/></g><g opacity=".05"><path fill="#4d4d4d" d="M1013 280.8h-80.66v15.52H1013z"/></g><g opacity=".05"><path fill="#e6e6e6" d="M947.719 252.87H915.42v11.899h32.299z"/></g><g opacity=".05"><path fill="#4d4d4d" d="M931.483 240.8H915.42v11.899h16.063z"/></g><g opacity=".05"><path fill="#333" d="M915.243 240.8H899.18v11.899h16.063z"/></g><g opacity=".05"><path fill="#b3b3b3" d="M915.419 252.87H890.72v11.899h24.699z"/></g><g opacity=".05"><path fill="#333" d="M914.38 240.801l1.036-27.591.864 27.591z"/></g><g opacity=".05"><g opacity=".01"><path fill="#fff" d="M865.155 302.53h-6.045v6.036h6.045z"/></g><g opacity=".01"><path fill="#fff" d="M873.445 302.53H867.4v6.036h6.045z"/></g><g opacity=".02"><path fill="#fff" d="M881.735 302.53h-6.045v6.036h6.045z"/></g><g opacity=".01"><path fill="#fff" d="M890.025 302.53h-6.045v6.036h6.045z"/></g><g opacity=".01"><path fill="#fff" d="M898.315 302.53h-6.045v6.036h6.045z"/></g><g opacity=".01"><path fill="#fff" d="M865.155 310.46h-6.045v6.036h6.045z"/></g><g opacity=".02"><path fill="#fff" d="M873.445 310.46H867.4v6.036h6.045z"/></g><g opacity=".01"><path fill="#fff" d="M881.735 310.46h-6.045v6.036h6.045z"/></g><g opacity=".01"><path fill="#fff" d="M898.315 310.46h-6.045v6.036h6.045z"/></g><g opacity=".01"><path fill="#fff" d="M865.155 318.4h-6.045v6.035h6.045z"/></g><g opacity=".02"><path fill="#fff" d="M873.445 318.4H867.4v6.035h6.045z"/></g><g opacity=".02"><path fill="#fff" d="M881.735 318.4h-6.045v6.035h6.045z"/></g><g opacity=".02"><path fill="#fff" d="M890.025 318.4h-6.045v6.035h6.045z"/></g><g opacity=".01"><path fill="#fff" d="M898.315 318.4h-6.045v6.035h6.045z"/></g><g opacity=".01"><path fill="#fff" d="M865.155 326.33h-6.045v6.036h6.045z"/></g><g opacity=".01"><path fill="#fff" d="M873.445 326.33H867.4v6.036h6.045z"/></g><g opacity=".02"><path fill="#fff" d="M890.025 326.33h-6.045v6.036h6.045z"/></g><g opacity=".02"><path fill="#fff" d="M898.315 326.33h-6.045v6.036h6.045z"/></g><g opacity=".01"><path fill="#fff" d="M865.155 334.26h-6.045v6.036h6.045z"/></g><g opacity=".01"><path fill="#fff" d="M873.445 334.26H867.4v6.036h6.045z"/></g><g opacity=".02"><path fill="#fff" d="M890.025 334.26h-6.045v6.036h6.045z"/></g><g opacity=".02"><path fill="#fff" d="M898.315 334.26h-6.045v6.036h6.045z"/></g><g opacity=".01"><path fill="#fff" d="M865.155 342.19h-6.045v6.036h6.045z"/></g><g opacity=".01"><path fill="#fff" d="M873.445 342.19H867.4v6.036h6.045z"/></g><g opacity=".01"><path fill="#fff" d="M890.025 342.19h-6.045v6.036h6.045z"/></g><g opacity=".01"><path fill="#fff" d="M898.315 342.19h-6.045v6.036h6.045z"/></g><g opacity=".01"><path fill="#fff" d="M873.445 350.3H867.4v6.036h6.045z"/></g><g opacity=".01"><path fill="#fff" d="M881.735 350.3h-6.045v6.036h6.045z"/></g><g opacity=".02"><path fill="#fff" d="M890.025 350.3h-6.045v6.036h6.045z"/></g><g opacity=".01"><path fill="#fff" d="M898.315 350.3h-6.045v6.036h6.045z"/></g><g opacity=".01"><path fill="#fff" d="M865.155 358.23h-6.045v6.036h6.045z"/></g><g opacity=".01"><path fill="#fff" d="M873.445 358.23H867.4v6.036h6.045z"/></g><g opacity=".01"><path fill="#fff" d="M890.025 358.23h-6.045v6.036h6.045z"/></g><g opacity=".02"><path fill="#fff" d="M898.315 358.23h-6.045v6.036h6.045z"/></g><g opacity=".01"><path fill="#fff" d="M865.155 366.16h-6.045v6.036h6.045z"/></g><g opacity=".02"><path fill="#fff" d="M873.445 366.16H867.4v6.036h6.045z"/></g><g opacity=".02"><path fill="#fff" d="M881.735 366.16h-6.045v6.036h6.045z"/></g><g opacity=".01"><path fill="#fff" d="M890.025 366.16h-6.045v6.036h6.045z"/></g><g opacity=".02"><path fill="#fff" d="M898.315 366.16h-6.045v6.036h6.045z"/></g><g opacity=".02"><path fill="#fff" d="M865.155 374.1h-6.045v6.036h6.045z"/></g><g opacity=".02"><path fill="#fff" d="M873.445 374.1H867.4v6.036h6.045z"/></g><g opacity=".01"><path fill="#fff" d="M890.025 374.1h-6.045v6.036h6.045z"/></g><g opacity=".01"><path fill="#fff" d="M881.735 382.03h-6.045v6.036h6.045z"/></g><g opacity=".01"><path fill="#fff" d="M890.025 382.03h-6.045v6.036h6.045z"/></g><g opacity=".01"><path fill="#fff" d="M898.315 382.03h-6.045v6.036h6.045z"/></g><g opacity=".01"><path fill="#fff" d="M865.155 389.96h-6.045v6.035h6.045z"/></g><g opacity=".02"><path fill="#fff" d="M873.445 389.96H867.4v6.035h6.045z"/></g><g opacity=".02"><path fill="#fff" d="M890.025 389.96h-6.045v6.035h6.045z"/></g><g opacity=".01"><path fill="#fff" d="M898.315 389.96h-6.045v6.035h6.045z"/></g><g opacity=".02"><path fill="#fff" d="M873.445 397.89H867.4v6.036h6.045z"/></g><g opacity=".01"><path fill="#fff" d="M881.735 397.89h-6.045v6.036h6.045z"/></g><g opacity=".02"><path fill="#fff" d="M890.025 397.89h-6.045v6.036h6.045z"/></g><g opacity=".01"><path fill="#fff" d="M898.315 397.89h-6.045v6.036h6.045z"/></g><g opacity=".01"><path fill="#fff" d="M865.155 405.83h-6.045v6.036h6.045z"/></g><g opacity=".02"><path fill="#fff" d="M873.445 405.83H867.4v6.036h6.045z"/></g><g opacity=".02"><path fill="#fff" d="M890.025 405.83h-6.045v6.036h6.045z"/></g><g opacity=".01"><path fill="#fff" d="M898.315 405.83h-6.045v6.036h6.045z"/></g><g opacity=".02"><path fill="#fff" d="M873.445 413.76H867.4v6.036h6.045z"/></g><g opacity=".03"><path fill="#fff" d="M881.735 413.76h-6.045v6.036h6.045z"/></g><g opacity=".02"><path fill="#fff" d="M890.025 413.76h-6.045v6.036h6.045z"/></g><g opacity=".02"><path fill="#fff" d="M898.315 413.76h-6.045v6.036h6.045z"/></g><g opacity=".02"><path fill="#fff" d="M865.155 421.69h-6.045v6.036h6.045z"/></g><g opacity=".02"><path fill="#fff" d="M873.445 421.69H867.4v6.036h6.045z"/></g><g opacity=".01"><path fill="#fff" d="M881.735 421.69h-6.045v6.036h6.045z"/></g><g opacity=".02"><path fill="#fff" d="M890.025 421.69h-6.045v6.036h6.045z"/></g><g opacity=".01"><path fill="#fff" d="M898.315 421.69h-6.045v6.036h6.045z"/></g><g opacity=".01"><path fill="#fff" d="M865.155 429.62h-6.045v6.036h6.045z"/></g><g opacity=".01"><path fill="#fff" d="M873.445 429.62H867.4v6.036h6.045z"/></g><g opacity=".01"><path fill="#fff" d="M890.025 429.62h-6.045v6.036h6.045z"/></g><g opacity=".01"><path fill="#fff" d="M865.155 437.56h-6.045v6.035h6.045z"/></g></g><g opacity=".05"><g opacity=".01"><path fill="#fff" d="M935.455 302.53h-6.045v6.036h6.045z"/></g><g opacity=".04"><path fill="#fff" d="M943.395 302.53h-6.045v6.036h6.045z"/></g><g opacity=".03"><path fill="#fff" d="M951.515 302.53h-6.045v6.036h6.045z"/></g><g opacity=".03"><path fill="#fff" d="M959.635 302.53h-6.045v6.036h6.045z"/></g><g opacity=".01"><path fill="#fff" d="M967.755 302.53h-6.045v6.036h6.045z"/></g><g opacity=".02"><path fill="#fff" d="M975.695 302.53h-6.045v6.036h6.045z"/></g><g opacity=".01"><path fill="#fff" d="M983.815 302.53h-6.045v6.036h6.045z"/></g><g opacity=".02"><path fill="#fff" d="M991.935 302.53h-6.045v6.036h6.045z"/></g><g opacity=".03"><path fill="#fff" d="M999.875 302.53h-6.045v6.036h6.045z"/></g><g opacity=".05"><path fill="#fff" d="M1007.995 302.53h-6.045v6.036h6.045z"/></g><g opacity=".05"><path fill="#fff" d="M1016.115 302.53h-6.045v6.036h6.045z"/></g><g opacity=".03"><path fill="#fff" d="M935.455 310.46h-6.045v6.036h6.045z"/></g><g opacity=".02"><path fill="#fff" d="M943.395 310.46h-6.045v6.036h6.045z"/></g><g opacity=".05"><path fill="#fff" d="M951.515 310.46h-6.045v6.036h6.045z"/></g><g opacity=".03"><path fill="#fff" d="M959.635 310.46h-6.045v6.036h6.045z"/></g><g opacity=".01"><path fill="#fff" d="M967.755 310.46h-6.045v6.036h6.045z"/></g><g opacity=".01"><path fill="#fff" d="M975.695 310.46h-6.045v6.036h6.045z"/></g><g opacity=".03"><path fill="#fff" d="M983.815 310.46h-6.045v6.036h6.045z"/></g><g opacity=".04"><path fill="#fff" d="M991.935 310.46h-6.045v6.036h6.045z"/></g><g opacity=".02"><path fill="#fff" d="M999.875 310.46h-6.045v6.036h6.045z"/></g><g opacity=".02"><path fill="#fff" d="M1016.115 310.46h-6.045v6.036h6.045z"/></g><g opacity=".03"><path fill="#fff" d="M935.455 318.4h-6.045v6.035h6.045z"/></g><g opacity=".05"><path fill="#fff" d="M943.395 318.4h-6.045v6.035h6.045z"/></g><g opacity=".05"><path fill="#fff" d="M951.515 318.4h-6.045v6.035h6.045z"/></g><g opacity=".04"><path fill="#fff" d="M959.635 318.4h-6.045v6.035h6.045z"/></g><g opacity=".01"><path fill="#fff" d="M967.755 318.4h-6.045v6.035h6.045z"/></g><g opacity=".01"><path fill="#fff" d="M975.695 318.4h-6.045v6.035h6.045z"/></g><g opacity=".03"><path fill="#fff" d="M983.815 318.4h-6.045v6.035h6.045z"/></g><g opacity=".05"><path fill="#fff" d="M991.935 318.4h-6.045v6.035h6.045z"/></g><g opacity=".03"><path fill="#fff" d="M999.875 318.4h-6.045v6.035h6.045z"/></g><g opacity=".03"><path fill="#fff" d="M1007.995 318.4h-6.045v6.035h6.045z"/></g><g opacity=".03"><path fill="#fff" d="M1016.115 318.4h-6.045v6.035h6.045z"/></g><g opacity=".04"><path fill="#fff" d="M935.455 326.33h-6.045v6.036h6.045z"/></g><g opacity=".03"><path fill="#fff" d="M943.395 326.33h-6.045v6.036h6.045z"/></g><g opacity=".04"><path fill="#fff" d="M951.515 326.33h-6.045v6.036h6.045z"/></g><g opacity=".02"><path fill="#fff" d="M959.635 326.33h-6.045v6.036h6.045z"/></g><g opacity=".01"><path fill="#fff" d="M967.755 326.33h-6.045v6.036h6.045z"/></g><g opacity=".01"><path fill="#fff" d="M975.695 326.33h-6.045v6.036h6.045z"/></g><g opacity=".02"><path fill="#fff" d="M983.815 326.33h-6.045v6.036h6.045z"/></g><g opacity=".01"><path fill="#fff" d="M991.935 326.33h-6.045v6.036h6.045z"/></g><g opacity=".03"><path fill="#fff" d="M999.875 326.33h-6.045v6.036h6.045z"/></g><g opacity=".05"><path fill="#fff" d="M1007.995 326.33h-6.045v6.036h6.045z"/></g><g opacity=".03"><path fill="#fff" d="M1016.115 326.33h-6.045v6.036h6.045z"/></g><g opacity=".01"><path fill="#fff" d="M943.395 334.26h-6.045v6.036h6.045z"/></g><g opacity=".04"><path fill="#fff" d="M951.515 334.26h-6.045v6.036h6.045z"/></g><g opacity=".03"><path fill="#fff" d="M959.635 334.26h-6.045v6.036h6.045z"/></g><g opacity=".04"><path fill="#fff" d="M967.755 334.26h-6.045v6.036h6.045z"/></g><g opacity=".03"><path fill="#fff" d="M975.695 334.26h-6.045v6.036h6.045z"/></g><g opacity=".05"><path fill="#fff" d="M983.815 334.26h-6.045v6.036h6.045z"/></g><g opacity=".04"><path fill="#fff" d="M991.935 334.26h-6.045v6.036h6.045z"/></g><g opacity=".04"><path fill="#fff" d="M999.875 334.26h-6.045v6.036h6.045z"/></g><g opacity=".05"><path fill="#fff" d="M1016.115 334.26h-6.045v6.036h6.045z"/></g><g opacity=".03"><path fill="#fff" d="M935.455 342.19h-6.045v6.036h6.045z"/></g><g opacity=".01"><path fill="#fff" d="M943.395 342.19h-6.045v6.036h6.045z"/></g><g opacity=".02"><path fill="#fff" d="M951.515 342.19h-6.045v6.036h6.045z"/></g><g opacity=".03"><path fill="#fff" d="M959.635 342.19h-6.045v6.036h6.045z"/></g><g opacity=".03"><path fill="#fff" d="M975.695 342.19h-6.045v6.036h6.045z"/></g><g opacity=".04"><path fill="#fff" d="M983.815 342.19h-6.045v6.036h6.045z"/></g><g opacity=".03"><path fill="#fff" d="M991.935 342.19h-6.045v6.036h6.045z"/></g><g opacity=".02"><path fill="#fff" d="M999.875 342.19h-6.045v6.036h6.045z"/></g><g opacity=".01"><path fill="#fff" d="M1007.995 342.19h-6.045v6.036h6.045z"/></g><g opacity=".02"><path fill="#fff" d="M1016.115 342.19h-6.045v6.036h6.045z"/></g><g opacity=".03"><path fill="#fff" d="M935.455 350.3h-6.045v6.036h6.045z"/></g><g opacity=".03"><path fill="#fff" d="M943.395 350.3h-6.045v6.036h6.045z"/></g><g opacity=".05"><path fill="#fff" d="M951.515 350.3h-6.045v6.036h6.045z"/></g><g opacity=".03"><path fill="#fff" d="M959.635 350.3h-6.045v6.036h6.045z"/></g><g opacity=".01"><path fill="#fff" d="M967.755 350.3h-6.045v6.036h6.045z"/></g><g opacity=".02"><path fill="#fff" d="M975.695 350.3h-6.045v6.036h6.045z"/></g><g opacity=".03"><path fill="#fff" d="M983.815 350.3h-6.045v6.036h6.045z"/></g><g opacity=".02"><path fill="#fff" d="M991.935 350.3h-6.045v6.036h6.045z"/></g><g opacity=".03"><path fill="#fff" d="M999.875 350.3h-6.045v6.036h6.045z"/></g><g opacity=".02"><path fill="#fff" d="M1007.995 350.3h-6.045v6.036h6.045z"/></g><g opacity=".03"><path fill="#fff" d="M1016.115 350.3h-6.045v6.036h6.045z"/></g><g opacity=".03"><path fill="#fff" d="M935.455 358.23h-6.045v6.036h6.045z"/></g><g opacity=".03"><path fill="#fff" d="M943.395 358.23h-6.045v6.036h6.045z"/></g><g opacity=".04"><path fill="#fff" d="M951.515 358.23h-6.045v6.036h6.045z"/></g><g opacity=".04"><path fill="#fff" d="M959.635 358.23h-6.045v6.036h6.045z"/></g><g opacity=".02"><path fill="#fff" d="M967.755 358.23h-6.045v6.036h6.045z"/></g><g opacity=".01"><path fill="#fff" d="M975.695 358.23h-6.045v6.036h6.045z"/></g><g opacity=".05"><path fill="#fff" d="M983.815 358.23h-6.045v6.036h6.045z"/></g><g opacity=".02"><path fill="#fff" d="M999.875 358.23h-6.045v6.036h6.045z"/></g><g opacity=".03"><path fill="#fff" d="M1007.995 358.23h-6.045v6.036h6.045z"/></g><g opacity=".05"><path fill="#fff" d="M1016.115 358.23h-6.045v6.036h6.045z"/></g><g opacity=".01"><path fill="#fff" d="M935.455 366.16h-6.045v6.036h6.045z"/></g><g opacity=".05"><path fill="#fff" d="M943.395 366.16h-6.045v6.036h6.045z"/></g><g opacity=".02"><path fill="#fff" d="M951.515 366.16h-6.045v6.036h6.045z"/></g><g opacity=".01"><path fill="#fff" d="M959.635 366.16h-6.045v6.036h6.045z"/></g><g opacity=".02"><path fill="#fff" d="M967.755 366.16h-6.045v6.036h6.045z"/></g><g opacity=".03"><path fill="#fff" d="M975.695 366.16h-6.045v6.036h6.045z"/></g><g opacity=".04"><path fill="#fff" d="M983.815 366.16h-6.045v6.036h6.045z"/></g><g opacity=".04"><path fill="#fff" d="M991.935 366.16h-6.045v6.036h6.045z"/></g><g opacity=".01"><path fill="#fff" d="M999.875 366.16h-6.045v6.036h6.045z"/></g><g opacity=".04"><path fill="#fff" d="M1007.995 366.16h-6.045v6.036h6.045z"/></g><g opacity=".04"><path fill="#fff" d="M1016.115 366.16h-6.045v6.036h6.045z"/></g><g opacity=".02"><path fill="#fff" d="M935.455 374.1h-6.045v6.036h6.045z"/></g><g opacity=".04"><path fill="#fff" d="M943.395 374.1h-6.045v6.036h6.045z"/></g><g opacity=".03"><path fill="#fff" d="M951.515 374.1h-6.045v6.036h6.045z"/></g><g opacity=".04"><path fill="#fff" d="M959.635 374.1h-6.045v6.036h6.045z"/></g><g opacity=".04"><path fill="#fff" d="M967.755 374.1h-6.045v6.036h6.045z"/></g><g opacity=".02"><path fill="#fff" d="M975.695 374.1h-6.045v6.036h6.045z"/></g><g opacity=".02"><path fill="#fff" d="M983.815 374.1h-6.045v6.036h6.045z"/></g><g opacity=".05"><path fill="#fff" d="M991.935 374.1h-6.045v6.036h6.045z"/></g><g opacity=".01"><path fill="#fff" d="M999.875 374.1h-6.045v6.036h6.045z"/></g><g opacity=".03"><path fill="#fff" d="M1016.115 374.1h-6.045v6.036h6.045z"/></g><g opacity=".03"><path fill="#fff" d="M935.455 382.03h-6.045v6.036h6.045z"/></g><g opacity=".04"><path fill="#fff" d="M943.395 382.03h-6.045v6.036h6.045z"/></g><g opacity=".05"><path fill="#fff" d="M951.515 382.03h-6.045v6.036h6.045z"/></g><g opacity=".03"><path fill="#fff" d="M959.635 382.03h-6.045v6.036h6.045z"/></g><g opacity=".04"><path fill="#fff" d="M967.755 382.03h-6.045v6.036h6.045z"/></g><g opacity=".01"><path fill="#fff" d="M975.695 382.03h-6.045v6.036h6.045z"/></g><g opacity=".01"><path fill="#fff" d="M983.815 382.03h-6.045v6.036h6.045z"/></g><g opacity=".01"><path fill="#fff" d="M991.935 382.03h-6.045v6.036h6.045z"/></g><g opacity=".02"><path fill="#fff" d="M999.875 382.03h-6.045v6.036h6.045z"/></g><g opacity=".03"><path fill="#fff" d="M1007.995 382.03h-6.045v6.036h6.045z"/></g><g opacity=".03"><path fill="#fff" d="M1016.115 382.03h-6.045v6.036h6.045z"/></g><g opacity=".05"><path fill="#fff" d="M935.455 389.96h-6.045v6.035h6.045z"/></g><g opacity=".01"><path fill="#fff" d="M943.395 389.96h-6.045v6.035h6.045z"/></g><g opacity=".04"><path fill="#fff" d="M951.515 389.96h-6.045v6.035h6.045z"/></g><g opacity=".03"><path fill="#fff" d="M959.635 389.96h-6.045v6.035h6.045z"/></g><g opacity=".02"><path fill="#fff" d="M967.755 389.96h-6.045v6.035h6.045z"/></g><g opacity=".03"><path fill="#fff" d="M975.695 389.96h-6.045v6.035h6.045z"/></g><g opacity=".02"><path fill="#fff" d="M983.815 389.96h-6.045v6.035h6.045z"/></g><g opacity=".01"><path fill="#fff" d="M991.935 389.96h-6.045v6.035h6.045z"/></g><g opacity=".04"><path fill="#fff" d="M999.875 389.96h-6.045v6.035h6.045z"/></g><g opacity=".02"><path fill="#fff" d="M1016.115 389.96h-6.045v6.035h6.045z"/></g><g opacity=".04"><path fill="#fff" d="M935.455 397.89h-6.045v6.036h6.045z"/></g><g opacity=".05"><path fill="#fff" d="M943.395 397.89h-6.045v6.036h6.045z"/></g><g opacity=".04"><path fill="#fff" d="M951.515 397.89h-6.045v6.036h6.045z"/></g><g opacity=".02"><path fill="#fff" d="M959.635 397.89h-6.045v6.036h6.045z"/></g><g opacity=".01"><path fill="#fff" d="M967.755 397.89h-6.045v6.036h6.045z"/></g><g opacity=".05"><path fill="#fff" d="M975.695 397.89h-6.045v6.036h6.045z"/></g><g opacity=".05"><path fill="#fff" d="M983.815 397.89h-6.045v6.036h6.045z"/></g><g opacity=".03"><path fill="#fff" d="M991.935 397.89h-6.045v6.036h6.045z"/></g><g opacity=".03"><path fill="#fff" d="M999.875 397.89h-6.045v6.036h6.045z"/></g><g opacity=".04"><path fill="#fff" d="M1007.995 397.89h-6.045v6.036h6.045z"/></g><g opacity=".05"><path fill="#fff" d="M1016.115 397.89h-6.045v6.036h6.045z"/></g><g opacity=".01"><path fill="#fff" d="M935.455 405.83h-6.045v6.036h6.045z"/></g><g opacity=".04"><path fill="#fff" d="M943.395 405.83h-6.045v6.036h6.045z"/></g><g opacity=".03"><path fill="#fff" d="M951.515 405.83h-6.045v6.036h6.045z"/></g><g opacity=".03"><path fill="#fff" d="M959.635 405.83h-6.045v6.036h6.045z"/></g><g opacity=".01"><path fill="#fff" d="M975.695 405.83h-6.045v6.036h6.045z"/></g><g opacity=".04"><path fill="#fff" d="M983.815 405.83h-6.045v6.036h6.045z"/></g><g opacity=".04"><path fill="#fff" d="M991.935 405.83h-6.045v6.036h6.045z"/></g><g opacity=".03"><path fill="#fff" d="M999.875 405.83h-6.045v6.036h6.045z"/></g><g opacity=".02"><path fill="#fff" d="M1007.995 405.83h-6.045v6.036h6.045z"/></g><g opacity=".01"><path fill="#fff" d="M935.455 413.76h-6.045v6.036h6.045z"/></g><g opacity=".03"><path fill="#fff" d="M943.395 413.76h-6.045v6.036h6.045z"/></g><g opacity=".05"><path fill="#fff" d="M951.515 413.76h-6.045v6.036h6.045z"/></g><g opacity=".04"><path fill="#fff" d="M967.755 413.76h-6.045v6.036h6.045z"/></g><g opacity=".01"><path fill="#fff" d="M975.695 413.76h-6.045v6.036h6.045z"/></g><g opacity=".03"><path fill="#fff" d="M983.815 413.76h-6.045v6.036h6.045z"/></g><g opacity=".03"><path fill="#fff" d="M991.935 413.76h-6.045v6.036h6.045z"/></g><g opacity=".02"><path fill="#fff" d="M999.875 413.76h-6.045v6.036h6.045z"/></g><g opacity=".05"><path fill="#fff" d="M1016.115 413.76h-6.045v6.036h6.045z"/></g><g opacity=".04"><path fill="#fff" d="M935.455 421.69h-6.045v6.036h6.045z"/></g><g opacity=".05"><path fill="#fff" d="M943.395 421.69h-6.045v6.036h6.045z"/></g><g opacity=".03"><path fill="#fff" d="M951.515 421.69h-6.045v6.036h6.045z"/></g><g opacity=".01"><path fill="#fff" d="M959.635 421.69h-6.045v6.036h6.045z"/></g><g opacity=".03"><path fill="#fff" d="M967.755 421.69h-6.045v6.036h6.045z"/></g><g opacity=".05"><path fill="#fff" d="M975.695 421.69h-6.045v6.036h6.045z"/></g><g opacity=".02"><path fill="#fff" d="M983.815 421.69h-6.045v6.036h6.045z"/></g><g opacity=".03"><path fill="#fff" d="M991.935 421.69h-6.045v6.036h6.045z"/></g><g opacity=".05"><path fill="#fff" d="M999.875 421.69h-6.045v6.036h6.045z"/></g><g opacity=".03"><path fill="#fff" d="M1007.995 421.69h-6.045v6.036h6.045z"/></g><g opacity=".04"><path fill="#fff" d="M935.455 429.62h-6.045v6.036h6.045z"/></g><g opacity=".05"><path fill="#fff" d="M943.395 429.62h-6.045v6.036h6.045z"/></g><g opacity=".01"><path fill="#fff" d="M951.515 429.62h-6.045v6.036h6.045z"/></g><g opacity=".04"><path fill="#fff" d="M959.635 429.62h-6.045v6.036h6.045z"/></g><g opacity=".02"><path fill="#fff" d="M967.755 429.62h-6.045v6.036h6.045z"/></g><g opacity=".03"><path fill="#fff" d="M983.815 429.62h-6.045v6.036h6.045z"/></g><g opacity=".05"><path fill="#fff" d="M991.935 429.62h-6.045v6.036h6.045z"/></g><g opacity=".03"><path fill="#fff" d="M999.875 429.62h-6.045v6.036h6.045z"/></g><g opacity=".03"><path fill="#fff" d="M1007.995 429.62h-6.045v6.036h6.045z"/></g><g opacity=".02"><path fill="#fff" d="M1016.115 429.62h-6.045v6.036h6.045z"/></g><g opacity=".02"><path fill="#fff" d="M935.455 437.56h-6.045v6.035h6.045z"/></g><g opacity=".02"><path fill="#fff" d="M943.395 437.56h-6.045v6.035h6.045z"/></g><g opacity=".03"><path fill="#fff" d="M959.635 437.56h-6.045v6.035h6.045z"/></g><g opacity=".02"><path fill="#fff" d="M967.755 437.56h-6.045v6.035h6.045z"/></g><g opacity=".03"><path fill="#fff" d="M975.695 437.56h-6.045v6.035h6.045z"/></g><g opacity=".04"><path fill="#fff" d="M983.815 437.56h-6.045v6.035h6.045z"/></g><g opacity=".05"><path fill="#fff" d="M991.935 437.56h-6.045v6.035h6.045z"/></g><g opacity=".01"><path fill="#fff" d="M999.875 437.56h-6.045v6.035h6.045z"/></g><g opacity=".04"><path fill="#fff" d="M1007.995 437.56h-6.045v6.035h6.045z"/></g><g opacity=".05"><path fill="#fff" d="M1016.115 437.56h-6.045v6.035h6.045z"/></g></g></g><g opacity=".05"><g opacity=".05"><path fill="#333" d="M833.378 263.73H776.38v178.307h56.998z"/></g><g opacity=".05"><path fill="#333" d="M802.288 254.76H776.38v10.002h25.908z"/></g><g opacity=".05"><path fill="#333" d="M791.407 248.9H776.38v5.863h15.027z"/></g><g opacity=".05"><g opacity=".01"><path fill="#fff" d="M809.367 276.32h-9.327v9.312h9.327z"/></g><g opacity=".01"><path fill="#fff" d="M809.367 299.26h-9.327v9.312h9.327z"/></g><g opacity=".01"><path fill="#fff" d="M809.367 344.95h-9.327v9.312h9.327z"/></g><g opacity=".01"><path fill="#fff" d="M809.367 367.72h-9.327v9.312h9.327z"/></g><g opacity=".01"><path fill="#fff" d="M809.367 390.48h-9.327v9.312h9.327z"/></g><g opacity=".05"><path fill="#fff" d="M809.367 413.41h-9.327v9.312h9.327z"/></g></g></g><g opacity=".05"><g opacity=".05"><path fill="#333" d="M791.06 363.06h-53.37v15.692h53.37z"/></g><g opacity=".05"><path fill="#4d4d4d" d="M817.659 363.06H791.06v15.692h26.599z"/></g><g opacity=".05"><path fill="#333" d="M737.69 363.062l16.581-7.932 36.79 7.932z"/></g><g opacity=".05"><path fill="#4d4d4d" d="M754.27 355.13l36.79 7.932h26.598z"/></g><g opacity=".05"><path fill="#333" d="M803.5 374.1h-78.07v71.392h78.07z"/></g><g opacity=".05"><path fill="#4d4d4d" d="M829.398 374.1H803.49v71.392h25.908z"/></g><g opacity=".04"><path fill="#fff" d="M823.36 379.1h-13.99v5.173h13.99z"/></g><g opacity=".04"><path fill="#fff" d="M823.36 388.58h-13.99v5.173h13.99z"/></g><g opacity=".02"><path fill="#fff" d="M823.36 398.07h-13.99v5.173h13.99z"/></g><g opacity=".02"><path fill="#fff" d="M823.36 407.72h-13.99v5.173h13.99z"/></g><g opacity=".05"><path fill="#fff" d="M823.36 426.69h-13.99v5.173h13.99z"/></g><g opacity=".05"><g opacity=".01"><path fill="#fff" d="M751.85 379.1h-13.99v5.173h13.99z"/></g><g opacity=".02"><path fill="#fff" d="M771.37 388.58h-13.99v5.173h13.99z"/></g><g opacity=".01"><path fill="#fff" d="M791.06 388.58h-13.99v5.173h13.99z"/></g><g opacity=".03"><path fill="#fff" d="M751.85 398.07h-13.99v5.174h13.99z"/></g><g opacity=".01"><path fill="#fff" d="M791.06 398.07h-13.99v5.174h13.99z"/></g><g opacity=".02"><path fill="#fff" d="M751.85 407.72h-13.99v5.173h13.99z"/></g><g opacity=".02"><path fill="#fff" d="M771.37 407.72h-13.99v5.173h13.99z"/></g><g opacity=".02"><path fill="#fff" d="M791.06 407.72h-13.99v5.173h13.99z"/></g><g opacity=".02"><path fill="#fff" d="M751.85 417.21h-13.99v5.173h13.99z"/></g><g opacity=".02"><path fill="#fff" d="M771.37 417.21h-13.99v5.173h13.99z"/></g><g opacity=".01"><path fill="#fff" d="M751.85 426.69h-13.99v5.173h13.99z"/></g><g opacity=".01"><path fill="#fff" d="M771.37 426.69h-13.99v5.173h13.99z"/></g><g opacity=".03"><path fill="#fff" d="M791.06 426.69h-13.99v5.173h13.99z"/></g></g></g><g opacity=".05"><g opacity=".05"><path fill="#333" d="M423.682 302.7H375.32v148.82h48.362z"/></g><g opacity=".05"><path fill="#4d4d4d" d="M478.785 302.7H423.86v148.82h54.925z"/></g><g opacity=".05"><path fill="#4d4d4d" d="M423.682 315.29H375.32v2.587h48.362z"/></g><g opacity=".05"><path fill="#333" d="M478.785 315.29H423.86v2.587h54.925z"/></g><g opacity=".05"><g opacity=".02"><path fill="#fff" d="M384.472 320.81h-5.182v5.173h5.182z"/></g><g opacity=".01"><path fill="#fff" d="M391.562 320.81h-5.182v5.173h5.182z"/></g><g opacity=".02"><path fill="#fff" d="M398.642 320.81h-5.182v5.173h5.182z"/></g><g opacity=".01"><path fill="#fff" d="M405.722 320.81h-5.182v5.173h5.182z"/></g><g opacity=".01"><path fill="#fff" d="M419.882 320.81H414.7v5.173h5.182z"/></g><g opacity=".02"><path fill="#fff" d="M384.472 327.88h-5.182v5.173h5.182z"/></g><g opacity=".01"><path fill="#fff" d="M398.642 327.88h-5.182v5.173h5.182z"/></g><g opacity=".02"><path fill="#fff" d="M405.722 327.88h-5.182v5.173h5.182z"/></g><g opacity=".01"><path fill="#fff" d="M412.802 327.88h-5.182v5.173h5.182z"/></g><g opacity=".02"><path fill="#fff" d="M419.882 327.88H414.7v5.173h5.182z"/></g><g opacity=".02"><path fill="#fff" d="M384.472 334.95h-5.182v5.173h5.182z"/></g><g opacity=".02"><path fill="#fff" d="M391.562 334.95h-5.182v5.173h5.182z"/></g><g opacity=".01"><path fill="#fff" d="M398.642 334.95h-5.182v5.173h5.182z"/></g><g opacity=".01"><path fill="#fff" d="M405.722 334.95h-5.182v5.173h5.182z"/></g><g opacity=".01"><path fill="#fff" d="M419.882 334.95H414.7v5.173h5.182z"/></g><g opacity=".01"><path fill="#fff" d="M384.472 342.02h-5.182v5.173h5.182z"/></g><g opacity=".02"><path fill="#fff" d="M398.642 342.02h-5.182v5.173h5.182z"/></g><g opacity=".02"><path fill="#fff" d="M391.562 356.16h-5.182v5.173h5.182z"/></g><g opacity=".01"><path fill="#fff" d="M405.722 356.16h-5.182v5.173h5.182z"/></g><g opacity=".01"><path fill="#fff" d="M412.802 356.16h-5.182v5.173h5.182z"/></g><g opacity=".01"><path fill="#fff" d="M384.472 363.23h-5.182v5.173h5.182z"/></g><g opacity=".01"><path fill="#fff" d="M398.642 363.23h-5.182v5.173h5.182z"/></g><g opacity=".01"><path fill="#fff" d="M412.802 363.23h-5.182v5.173h5.182z"/></g><g opacity=".01"><path fill="#fff" d="M384.472 370.3h-5.182v5.173h5.182z"/></g><g opacity=".01"><path fill="#fff" d="M391.562 370.3h-5.182v5.173h5.182z"/></g><g opacity=".01"><path fill="#fff" d="M398.642 370.3h-5.182v5.173h5.182z"/></g><g opacity=".01"><path fill="#fff" d="M419.882 370.3H414.7v5.173h5.182z"/></g><g opacity=".02"><path fill="#fff" d="M419.882 377.2H414.7v5.173h5.182z"/></g><g opacity=".02"><path fill="#fff" d="M384.472 384.27h-5.182v5.173h5.182z"/></g><g opacity=".02"><path fill="#fff" d="M391.562 384.27h-5.182v5.173h5.182z"/></g><g opacity=".01"><path fill="#fff" d="M398.642 384.27h-5.182v5.173h5.182z"/></g><g opacity=".01"><path fill="#fff" d="M412.802 384.27h-5.182v5.173h5.182z"/></g><g opacity=".02"><path fill="#fff" d="M419.882 384.27H414.7v5.173h5.182z"/></g><g opacity=".01"><path fill="#fff" d="M384.472 391.34h-5.182v5.173h5.182z"/></g><g opacity=".02"><path fill="#fff" d="M405.722 391.34h-5.182v5.173h5.182z"/></g><g opacity=".02"><path fill="#fff" d="M419.882 391.34H414.7v5.173h5.182z"/></g><g opacity=".01"><path fill="#fff" d="M384.472 398.41h-5.182v5.173h5.182z"/></g><g opacity=".02"><path fill="#fff" d="M405.722 398.41h-5.182v5.173h5.182z"/></g><g opacity=".02"><path fill="#fff" d="M419.882 398.41H414.7v5.173h5.182z"/></g><g opacity=".02"><path fill="#fff" d="M384.472 405.48h-5.182v5.173h5.182z"/></g><g opacity=".01"><path fill="#fff" d="M405.722 405.48h-5.182v5.173h5.182z"/></g><g opacity=".02"><path fill="#fff" d="M419.882 405.48H414.7v5.173h5.182z"/></g><g opacity=".01"><path fill="#fff" d="M391.562 412.55h-5.182v5.173h5.182z"/></g><g opacity=".01"><path fill="#fff" d="M398.642 412.55h-5.182v5.173h5.182z"/></g><g opacity=".01"><path fill="#fff" d="M412.802 412.55h-5.182v5.173h5.182z"/></g><g opacity=".02"><path fill="#fff" d="M419.882 412.55H414.7v5.173h5.182z"/></g><g opacity=".01"><path fill="#fff" d="M384.472 419.62h-5.182v5.173h5.182z"/></g><g opacity=".01"><path fill="#fff" d="M398.642 419.62h-5.182v5.173h5.182z"/></g><g opacity=".01"><path fill="#fff" d="M419.882 419.62H414.7v5.173h5.182z"/></g><g opacity=".01"><path fill="#fff" d="M384.472 426.69h-5.182v5.173h5.182z"/></g><g opacity=".01"><path fill="#fff" d="M398.642 426.69h-5.182v5.173h5.182z"/></g><g opacity=".01"><path fill="#fff" d="M419.882 426.69H414.7v5.173h5.182z"/></g><g opacity=".01"><path fill="#fff" d="M384.472 433.76h-5.182v5.173h5.182z"/></g><g opacity=".01"><path fill="#fff" d="M405.722 433.76h-5.182v5.173h5.182z"/></g><g opacity=".01"><path fill="#fff" d="M412.802 433.76h-5.182v5.173h5.182z"/></g><g opacity=".01"><path fill="#fff" d="M384.472 440.83h-5.182v5.173h5.182z"/></g><g opacity=".01"><path fill="#fff" d="M391.562 440.83h-5.182v5.173h5.182z"/></g><g opacity=".02"><path fill="#fff" d="M398.642 440.83h-5.182v5.173h5.182z"/></g><g opacity=".01"><path fill="#fff" d="M405.722 440.83h-5.182v5.173h5.182z"/></g><g opacity=".01"><path fill="#fff" d="M419.882 440.83H414.7v5.173h5.182z"/></g><g opacity=".05"><g opacity=".01"><path fill="#fff" d="M391.562 327.88h-5.182v5.173h5.182z"/></g><g opacity=".01"><path fill="#fff" d="M391.562 342.02h-5.182v5.173h5.182z"/></g><g opacity=".01"><path fill="#fff" d="M384.472 349.09h-5.182v5.173h5.182z"/></g><g opacity=".01"><path fill="#fff" d="M398.642 349.09h-5.182v5.173h5.182z"/></g><g opacity=".01"><path fill="#fff" d="M419.882 349.09H414.7v5.173h5.182z"/></g><g opacity=".01"><path fill="#fff" d="M405.722 363.23h-5.182v5.173h5.182z"/></g><g opacity=".01"><path fill="#fff" d="M384.472 377.2h-5.182v5.173h5.182z"/></g><g opacity=".01"><path fill="#fff" d="M412.802 377.2h-5.182v5.173h5.182z"/></g><g opacity=".01"><path fill="#fff" d="M398.642 398.41h-5.182v5.173h5.182z"/></g><g opacity=".01"><path fill="#fff" d="M398.642 405.48h-5.182v5.173h5.182z"/></g><g opacity=".01"><path fill="#fff" d="M391.562 419.62h-5.182v5.173h5.182z"/></g><g opacity=".01"><path fill="#fff" d="M419.882 433.76H414.7v5.173h5.182z"/></g></g></g><g opacity=".03"><g opacity=".02"><path fill="#e6e6e6" d="M434.214 317.88h-5.354v127.091h5.354z"/></g><g opacity=".02"><path fill="#e6e6e6" d="M443.374 317.88h-5.354v127.091h5.354z"/></g><g opacity=".02"><path fill="#e6e6e6" d="M452.704 317.88h-5.354v127.091h5.354z"/></g><g opacity=".02"><path fill="#e6e6e6" d="M462.024 317.88h-5.354v127.091h5.354z"/></g><g opacity=".02"><path fill="#e6e6e6" d="M471.354 317.88H466v127.091h5.354z"/></g></g></g><g opacity=".05"><g opacity=".05"><path fill="#4d4d4d" d="M315.909 229.76L305.2 201.48l28.672 28.28z"/></g><g opacity=".05"><path fill="#333" d="M290.86 229.76l14.336-28.28 10.708 28.28z"/></g><g opacity=".05"><path fill="#333" d="M315.904 229.76H290.86v30.178h25.044z"/></g><g opacity=".05"><path fill="#4d4d4d" d="M333.873 229.76H315.91v30.178h17.963z"/></g><g opacity=".05"><path fill="#333" d="M341.294 365.47H265.47v86.74h75.824z"/></g><g opacity=".05"><path fill="#333" d="M330.935 303.39H276.01v62.08h54.925z"/></g><g opacity=".05"><path fill="#333" d="M322.985 241.31H283.95v62.08h39.035z"/></g><g opacity=".05"><path fill="#4d4d4d" d="M349.755 241.31H322.81v62.08h26.945z"/></g><g opacity=".05"><path fill="#4d4d4d" d="M387.934 365.47H341.3v86.74h46.634z"/></g><g opacity=".05"><path fill="#4d4d4d" d="M366.338 303.39H330.93v62.08h35.408z"/></g><g opacity=".05"><g opacity=".03"><path fill="#fff" d="M340.428 245.8h-8.118v8.105h8.118z"/></g><g opacity=".02"><path fill="#fff" d="M340.428 255.97h-8.118v8.105h8.118z"/></g><g opacity=".05"><path fill="#fff" d="M340.428 265.97h-8.118v8.105h8.118z"/></g><g opacity=".01"><path fill="#fff" d="M340.428 275.98h-8.118v8.105h8.118z"/></g><g opacity=".05"><path fill="#fff" d="M340.428 286.15h-8.118v8.105h8.118z"/></g><g opacity=".01"><path fill="#fff" d="M346.478 308.74h-8.118v8.105h8.118z"/></g><g opacity=".04"><path fill="#fff" d="M358.908 308.74h-8.118v8.105h8.118z"/></g><g opacity=".01"><path fill="#fff" d="M346.478 318.91h-8.118v8.105h8.118z"/></g><g opacity=".02"><path fill="#fff" d="M358.908 318.91h-8.118v8.105h8.118z"/></g><g opacity=".04"><path fill="#fff" d="M346.478 339.61h-8.118v8.105h8.118z"/></g><g opacity=".05"><path fill="#fff" d="M346.478 349.78h-8.118v8.105h8.118z"/></g><g opacity=".01"><path fill="#fff" d="M358.908 349.78h-8.118v8.105h8.118z"/></g><g opacity=".03"><path fill="#fff" d="M357.878 370.82h-8.118v8.105h8.118z"/></g><g opacity=".04"><path fill="#fff" d="M368.758 370.82h-8.118v8.105h8.118z"/></g><g opacity=".04"><path fill="#fff" d="M379.638 370.82h-8.118v8.105h8.118z"/></g><g opacity=".02"><path fill="#fff" d="M368.758 380.65h-8.118v8.105h8.118z"/></g><g opacity=".03"><path fill="#fff" d="M379.638 380.65h-8.118v8.105h8.118z"/></g><g opacity=".01"><path fill="#fff" d="M357.878 390.48h-8.118v8.105h8.118z"/></g><g opacity=".04"><path fill="#fff" d="M379.638 390.48h-8.118v8.105h8.118z"/></g><g opacity=".02"><path fill="#fff" d="M379.638 400.31h-8.118v8.105h8.118z"/></g><g opacity=".01"><path fill="#fff" d="M357.878 410.31h-8.118v8.105h8.118z"/></g><g opacity=".05"><path fill="#fff" d="M368.758 410.31h-8.118v8.105h8.118z"/></g><g opacity=".03"><path fill="#fff" d="M379.638 410.31h-8.118v8.105h8.118z"/></g><g opacity=".02"><path fill="#fff" d="M357.878 420.48h-8.118v8.105h8.118z"/></g><g opacity=".01"><path fill="#fff" d="M368.758 420.48h-8.118v8.105h8.118z"/></g><g opacity=".02"><path fill="#fff" d="M379.638 420.48h-8.118v8.105h8.118z"/></g><g opacity=".03"><path fill="#fff" d="M357.878 430.31h-8.118v8.105h8.118z"/></g><g opacity=".05"><path fill="#fff" d="M368.758 430.31h-8.118v8.105h8.118z"/></g><g opacity=".01"><path fill="#fff" d="M379.638 430.31h-8.118v8.105h8.118z"/></g></g><g opacity=".05"><g opacity=".01"><path fill="#fff" d="M281.708 387.49h-8.118v8.105h8.118z"/></g><g opacity=".01"><path fill="#fff" d="M290.858 308.74h-8.118v8.105h8.118z"/></g><g opacity=".02"><path fill="#fff" d="M297.248 245.8h-8.118v8.105h8.118z"/></g><g opacity=".02"><path fill="#fff" d="M307.438 245.8h-8.118v8.105h8.118z"/></g><g opacity=".02"><path fill="#fff" d="M297.248 255.97h-8.118v8.105h8.118z"/></g><g opacity=".02"><path fill="#fff" d="M307.438 255.97h-8.118v8.105h8.118z"/></g><g opacity=".03"><path fill="#fff" d="M317.808 255.97h-8.118v8.105h8.118z"/></g><g opacity=".02"><path fill="#fff" d="M317.808 265.97h-8.118v8.105h8.118z"/></g><g opacity=".02"><path fill="#fff" d="M297.248 275.98h-8.118v8.105h8.118z"/></g><g opacity=".01"><path fill="#fff" d="M307.438 275.98h-8.118v8.105h8.118z"/></g><g opacity=".01"><path fill="#fff" d="M317.808 275.98h-8.118v8.105h8.118z"/></g><g opacity=".03"><path fill="#fff" d="M307.438 286.15h-8.118v8.105h8.118z"/></g><g opacity=".01"><path fill="#fff" d="M301.228 308.74h-8.118v8.105h8.118z"/></g><g opacity=".01"><path fill="#fff" d="M311.588 308.74h-8.118v8.105h8.118z"/></g><g opacity=".03"><path fill="#fff" d="M321.778 308.74h-8.118v8.105h8.118z"/></g><g opacity=".03"><path fill="#fff" d="M290.858 318.91h-8.118v8.105h8.118z"/></g><g opacity=".03"><path fill="#fff" d="M301.228 318.91h-8.118v8.105h8.118z"/></g><g opacity=".01"><path fill="#fff" d="M290.858 329.26h-8.118v8.105h8.118z"/></g><g opacity=".02"><path fill="#fff" d="M311.588 329.26h-8.118v8.105h8.118z"/></g><g opacity=".03"><path fill="#fff" d="M321.778 329.26h-8.118v8.105h8.118z"/></g><g opacity=".03"><path fill="#fff" d="M290.858 339.61h-8.118v8.105h8.118z"/></g><g opacity=".01"><path fill="#fff" d="M301.228 339.61h-8.118v8.105h8.118z"/></g><g opacity=".02"><path fill="#fff" d="M311.588 339.61h-8.118v8.105h8.118z"/></g><g opacity=".01"><path fill="#fff" d="M321.778 339.61h-8.118v8.105h8.118z"/></g><g opacity=".01"><path fill="#fff" d="M290.858 349.78h-8.118v8.105h8.118z"/></g><g opacity=".01"><path fill="#fff" d="M301.228 349.78h-8.118v8.105h8.118z"/></g><g opacity=".01"><path fill="#fff" d="M311.588 349.78h-8.118v8.105h8.118z"/></g><g opacity=".03"><path fill="#fff" d="M321.778 349.78h-8.118v8.105h8.118z"/></g><g opacity=".01"><path fill="#fff" d="M302.258 370.82h-8.118v8.105h8.118z"/></g><g opacity=".03"><path fill="#fff" d="M312.628 370.82h-8.118v8.105h8.118z"/></g><g opacity=".02"><path fill="#fff" d="M322.988 370.82h-8.118v8.105h8.118z"/></g><g opacity=".03"><path fill="#fff" d="M333.178 370.82h-8.118v8.105h8.118z"/></g><g opacity=".01"><path fill="#fff" d="M281.708 397.32h-8.118v8.105h8.118z"/></g><g opacity=".03"><path fill="#fff" d="M292.068 380.65h-8.118v8.105h8.118z"/></g><g opacity=".01"><path fill="#fff" d="M302.258 380.65h-8.118v8.105h8.118z"/></g><g opacity=".01"><path fill="#fff" d="M312.628 380.65h-8.118v8.105h8.118z"/></g><g opacity=".03"><path fill="#fff" d="M322.988 380.65h-8.118v8.105h8.118z"/></g><g opacity=".03"><path fill="#fff" d="M333.178 380.65h-8.118v8.105h8.118z"/></g><g opacity=".01"><path fill="#fff" d="M281.708 407.15h-8.118v8.105h8.118z"/></g><g opacity=".02"><path fill="#fff" d="M292.068 390.48h-8.118v8.105h8.118z"/></g><g opacity=".01"><path fill="#fff" d="M302.258 390.48h-8.118v8.105h8.118z"/></g><g opacity=".01"><path fill="#fff" d="M312.628 390.48h-8.118v8.105h8.118z"/></g><g opacity=".02"><path fill="#fff" d="M333.178 390.48h-8.118v8.105h8.118z"/></g><g opacity=".03"><path fill="#fff" d="M281.708 416.98h-8.118v8.105h8.118z"/></g><g opacity=".01"><path fill="#fff" d="M302.258 400.31h-8.118v8.105h8.118z"/></g><g opacity=".03"><path fill="#fff" d="M312.628 400.31h-8.118v8.105h8.118z"/></g><g opacity=".01"><path fill="#fff" d="M322.988 400.31h-8.118v8.105h8.118z"/></g><g opacity=".02"><path fill="#fff" d="M333.178 400.31h-8.118v8.105h8.118z"/></g><g opacity=".02"><path fill="#fff" d="M281.708 426.98h-8.118v8.105h8.118z"/></g><g opacity=".03"><path fill="#fff" d="M292.068 410.31h-8.118v8.105h8.118z"/></g><g opacity=".03"><path fill="#fff" d="M312.628 410.31h-8.118v8.105h8.118z"/></g><g opacity=".02"><path fill="#fff" d="M322.988 410.31h-8.118v8.105h8.118z"/></g><g opacity=".01"><path fill="#fff" d="M333.178 410.31h-8.118v8.105h8.118z"/></g><g opacity=".02"><path fill="#fff" d="M292.068 420.48h-8.118v8.105h8.118z"/></g><g opacity=".03"><path fill="#fff" d="M302.258 420.48h-8.118v8.105h8.118z"/></g><g opacity=".01"><path fill="#fff" d="M312.628 420.48h-8.118v8.105h8.118z"/></g><g opacity=".01"><path fill="#fff" d="M322.988 420.48h-8.118v8.105h8.118z"/></g><g opacity=".02"><path fill="#fff" d="M333.178 420.48h-8.118v8.105h8.118z"/></g><g opacity=".02"><path fill="#fff" d="M281.708 446.99h-8.118v8.105h8.118z"/></g><g opacity=".03"><path fill="#fff" d="M292.068 430.31h-8.118v8.105h8.118z"/></g><g opacity=".01"><path fill="#fff" d="M302.258 430.31h-8.118v8.105h8.118z"/></g><g opacity=".01"><path fill="#fff" d="M312.628 430.31h-8.118v8.105h8.118z"/></g><g opacity=".03"><path fill="#fff" d="M322.988 430.31h-8.118v8.105h8.118z"/></g><g opacity=".01"><path fill="#fff" d="M333.178 430.31h-8.118v8.105h8.118z"/></g></g></g><g opacity=".05"><path fill="#333" d="M506.412 444.975H398.98l107.432-93.465z"/></g><g opacity=".05"><path fill="#333" d="M276.005 463.543H127.12L276.005 334.21z"/></g><g opacity=".05"><g opacity=".05"><path fill="#4d4d4d" d="M497.262 428.42H460.3v20.693h36.962z"/></g><g opacity=".05"><path fill="#4d4d4d" d="M494.495 423.59H463.06v9.657h31.435z"/></g><g opacity=".05"><path fill="#4d4d4d" d="M490.874 426.52H466.52l8.463-14.14h7.427z"/></g><g opacity=".05"><path fill="#fff" d="M487.412 432.56H470.14v12.588h17.272z"/></g><g opacity=".05"><path fill="#4d4d4d" d="M489.487 437.56H468.07v2.587h21.417z"/></g></g><g opacity=".05"><g opacity=".05"><path fill="#333" d="M662.211 462.39c.518 13.451-9.845 25.005-23.49 25.522-13.472.518-25.044-10.001-25.562-23.452-.519-13.45 9.845-25.004 23.49-25.522 13.472-.517 24.871 10.002 25.562 23.453z"/></g><g opacity=".05"><path fill="#4d4d4d" d="M658.067 455.665c.346 7.76-5.7 14.313-13.472 14.657-7.772.345-14.335-5.69-14.68-13.45-.346-7.76 5.699-14.313 13.471-14.658 7.773-.345 14.336 5.69 14.681 13.45z"/></g></g><g opacity=".05"><g opacity=".05"><path fill="#333" d="M300.365 443.937a9.649 9.649 0 0 1-9.673 9.657 9.649 9.649 0 0 1-9.672-9.657 9.649 9.649 0 0 1 9.672-9.657 9.649 9.649 0 0 1 9.673 9.657z"/></g><g opacity=".05"><path fill="#333" d="M303.638 453.593c0 7.07-5.7 12.934-12.954 12.934-7.082 0-12.954-5.69-12.954-12.934 0-7.07 5.7-12.933 12.954-12.933 7.082 0 12.954 5.69 12.954 12.933z"/></g><g opacity=".05"><path fill="#333" d="M297.081 435.663c0 3.621-2.763 6.553-6.39 6.553-3.455 0-6.391-2.932-6.391-6.553s2.764-6.553 6.39-6.553c3.455 0 6.391 2.932 6.391 6.553z"/></g><g opacity=".05"><path fill="#4d4d4d" d="M298.804 443.938c0 3.104-2.418 5.518-5.527 5.518s-5.527-2.414-5.527-5.518c0-3.104 2.418-5.518 5.527-5.518s5.527 2.414 5.527 5.518z"/></g><g opacity=".05"><path fill="#4d4d4d" d="M296.21 436.52c0 2.241-1.9 4.138-4.145 4.138-2.245 0-4.145-1.897-4.145-4.138 0-2.242 1.9-4.14 4.145-4.14 2.246-.172 4.146 1.725 4.146 4.14z"/></g></g><g opacity=".05"><g opacity=".05"><path fill="#333" d="M366.341 452.73c0 10.001-8.118 18.106-18.135 18.106-10.018 0-18.136-8.105-18.136-18.107 0-10.001 8.118-18.106 18.136-18.106 10.017-.173 18.135 8.105 18.135 18.106z"/></g><g opacity=".05"><path fill="#333" d="M372.557 470.835c0 13.45-10.881 24.314-24.353 24.314-13.473 0-24.354-10.864-24.354-24.314 0-13.451 10.881-24.315 24.354-24.315 13.472 0 24.353 10.864 24.353 24.315z"/></g><g opacity=".05"><path fill="#333" d="M360.125 437.207c0 6.726-5.354 12.244-11.917 12.244-6.564 0-11.918-5.518-11.918-12.244 0-6.725 5.354-12.243 11.918-12.243 6.563-.173 11.917 5.346 11.917 12.244z"/></g><g opacity=".05"><path fill="#4d4d4d" d="M363.572 452.73c0 5.69-4.663 10.518-10.536 10.518-5.7 0-10.536-4.656-10.536-10.519 0-5.69 4.663-10.519 10.536-10.519 5.872 0 10.536 4.656 10.536 10.52z"/></g><g opacity=".05"><path fill="#4d4d4d" d="M358.57 438.592c0 4.312-3.627 7.933-7.945 7.933-4.318 0-7.945-3.621-7.945-7.933 0-4.31 3.627-7.932 7.945-7.932 4.318 0 7.945 3.621 7.945 7.932z"/></g></g><g opacity=".05"><g opacity=".05"><path fill="#333" d="M319.882 449.63c0 6.898-5.527 12.416-12.436 12.416s-12.436-5.518-12.436-12.416c0-6.898 5.527-12.416 12.436-12.416 6.909-.173 12.436 5.518 12.436 12.416z"/></g><g opacity=".05"><path fill="#333" d="M324.198 462.047c0 9.312-7.427 16.727-16.754 16.727-9.327 0-16.754-7.415-16.754-16.727 0-9.312 7.427-16.727 16.754-16.727 9.327 0 16.754 7.588 16.754 16.727z"/></g><g opacity=".05"><path fill="#333" d="M315.731 438.94c0 4.656-3.627 8.45-8.29 8.45-4.491 0-8.291-3.794-8.291-8.45 0-4.656 3.627-8.45 8.29-8.45 4.491 0 8.291 3.794 8.291 8.45z"/></g><g opacity=".05"><path fill="#4d4d4d" d="M317.978 449.623c0 3.966-3.281 7.242-7.254 7.242-3.972 0-7.254-3.276-7.254-7.242 0-3.967 3.282-7.243 7.254-7.243 4.145 0 7.254 3.276 7.254 7.243z"/></g><g opacity=".05"><path fill="#4d4d4d" d="M314.524 439.968c0 2.932-2.418 5.346-5.527 5.346-2.936 0-5.527-2.414-5.527-5.346 0-2.931 2.418-5.518 5.527-5.518s5.527 2.414 5.527 5.518z"/></g></g><g opacity=".05"><g opacity=".05"><path fill="#333" d="M415.56 437.036c0 3.276-2.763 6.035-6.045 6.035-3.281 0-6.045-2.759-6.045-6.035 0-3.277 2.764-6.036 6.045-6.036 3.282 0 6.045 2.587 6.045 6.036z"/></g><g opacity=".05"><path fill="#333" d="M417.636 443.075a8.102 8.102 0 0 1-8.118 8.105 8.102 8.102 0 0 1-8.118-8.105 8.102 8.102 0 0 1 8.118-8.105 8.102 8.102 0 0 1 8.118 8.105z"/></g><g opacity=".05"><path fill="#333" d="M413.495 431.869c0 2.241-1.727 4.138-3.972 4.138-2.246 0-3.973-1.897-3.973-4.138 0-2.242 1.727-4.139 3.973-4.139 2.245 0 3.972 1.897 3.972 4.139z"/></g><g opacity=".05"><path fill="#4d4d4d" d="M414.699 437.039a3.462 3.462 0 0 1-3.455 3.449 3.462 3.462 0 0 1-3.454-3.45 3.462 3.462 0 0 1 3.454-3.448c1.9 0 3.455 1.552 3.455 3.449z"/></g><g opacity=".05"><path fill="#4d4d4d" d="M412.972 432.383c0 1.38-1.21 2.587-2.591 2.587-1.382 0-2.591-1.207-2.591-2.587 0-1.38 1.209-2.587 2.59-2.587 1.383-.172 2.592 1.035 2.592 2.587z"/></g></g><g opacity=".05"><g opacity=".05"><path fill="#333" d="M530.77 449.623c0 4.31-3.627 7.932-7.945 7.932-4.318 0-7.945-3.621-7.945-7.932a7.918 7.918 0 0 1 7.945-7.933c4.318 0 7.945 3.621 7.945 7.933z"/></g><g opacity=".05"><path fill="#333" d="M533.362 457.564c0 5.863-4.664 10.519-10.536 10.519-5.873 0-10.536-4.656-10.536-10.52 0-5.862 4.663-10.519 10.536-10.519 5.872-.172 10.536 4.657 10.536 10.52z"/></g><g opacity=".05"><path fill="#333" d="M528.003 442.906c0 2.931-2.245 5.346-5.181 5.346-2.937 0-5.182-2.415-5.182-5.346 0-2.932 2.245-5.346 5.182-5.346 2.763 0 5.181 2.414 5.181 5.346z"/></g><g opacity=".05"><path fill="#4d4d4d" d="M529.562 449.624c0 2.586-2.073 4.483-4.491 4.483-2.591 0-4.491-2.07-4.491-4.483 0-2.587 2.073-4.484 4.49-4.484 2.419 0 4.492 1.897 4.492 4.484z"/></g><g opacity=".05"><path fill="#4d4d4d" d="M527.319 443.419a3.462 3.462 0 0 1-3.455 3.449 3.462 3.462 0 0 1-3.454-3.45 3.462 3.462 0 0 1 3.454-3.448c1.9 0 3.455 1.552 3.455 3.449z"/></g></g><g opacity=".05"><g opacity=".05"><path fill="#333" d="M520.062 455.486c-.864 8.278-8.29 14.14-16.408 13.279-8.29-.863-14.163-8.278-13.3-16.383.864-8.277 8.29-14.14 16.409-13.278 8.118.862 14.163 8.105 13.3 16.382z"/></g><g opacity=".05"><path fill="#333" d="M523.52 470.834c-1.21 11.037-11.054 18.97-22.108 17.762-11.054-1.207-19-11.036-17.79-22.073 1.209-11.036 11.054-18.969 22.108-17.762 11.054 1.207 18.999 11.21 17.79 22.073z"/></g><g opacity=".05"><path fill="#333" d="M516.266 442.21c-.519 5.518-5.355 9.657-10.882 9.14-5.354-.518-9.327-5.519-8.809-11.037.519-5.518 5.355-9.657 10.882-9.14 5.527.518 9.327 5.519 8.809 11.037z"/></g><g opacity=".05"><path fill="#4d4d4d" d="M517.81 455.316a8.576 8.576 0 0 1-9.499 7.588 8.57 8.57 0 0 1-7.6-9.485 8.576 8.576 0 0 1 9.5-7.588 8.57 8.57 0 0 1 7.6 9.485z"/></g><g opacity=".05"><path fill="#4d4d4d" d="M514.875 443.251c-.345 3.621-3.627 6.208-7.082 5.863-3.627-.345-6.218-3.621-5.872-7.07.345-3.621 3.627-6.208 7.081-5.863 3.628.345 6.218 3.621 5.873 7.07z"/></g></g><g opacity=".05"><g opacity=".05"><path fill="#333" d="M598.3 448.243c0 7.588-6.045 13.623-13.645 13.623s-13.645-6.035-13.645-13.623c0-7.587 6.045-13.623 13.645-13.623 7.427 0 13.645 6.036 13.645 13.623z"/></g><g opacity=".05"><path fill="#333" d="M602.967 461.87c0 10.173-8.29 18.278-18.309 18.278-10.19 0-18.308-8.277-18.308-18.279 0-10.174 8.29-18.279 18.308-18.279s18.309 8.277 18.309 18.28z"/></g><g opacity=".05"><path fill="#333" d="M593.463 436.522c0 5.173-3.973 9.312-8.982 9.312-5.008 0-8.981-4.139-8.981-9.312 0-5.173 3.973-9.312 8.981-9.312 5.01.172 8.982 4.311 8.982 9.312z"/></g><g opacity=".05"><path fill="#4d4d4d" d="M596.23 448.252a7.918 7.918 0 0 1-7.945 7.933c-4.318 0-7.945-3.45-7.945-7.933a7.918 7.918 0 0 1 7.945-7.932c4.318.172 7.945 3.621 7.945 7.932z"/></g><g opacity=".05"><path fill="#4d4d4d" d="M592.26 437.73c0 3.277-2.59 6.036-6.045 6.036-3.281 0-6.045-2.586-6.045-6.035 0-3.277 2.59-5.863 6.045-5.863 3.455-.173 6.045 2.586 6.045 5.863z"/></g></g><g opacity=".05"><g opacity=".05"><path fill="#333" d="M568.075 459.63c0 9.656-7.945 17.589-17.618 17.589-9.672 0-17.617-7.933-17.617-17.59s7.945-17.589 17.617-17.589c9.673 0 17.618 7.76 17.618 17.59z"/></g><g opacity=".05"><path fill="#333" d="M574.125 477.215c0 13.106-10.535 23.625-23.662 23.625-13.127 0-23.663-10.52-23.663-23.625 0-13.106 10.536-23.625 23.663-23.625 12.954 0 23.662 10.52 23.662 23.625z"/></g><g opacity=".05"><path fill="#333" d="M562.034 444.449c0 6.552-5.181 11.898-11.572 11.898-6.39 0-11.572-5.346-11.572-11.898 0-6.553 5.182-11.899 11.572-11.899 6.39 0 11.573 5.346 11.573 11.899z"/></g><g opacity=".05"><path fill="#4d4d4d" d="M565.311 459.624c0 5.519-4.49 10.175-10.19 10.175-5.528 0-10.191-4.484-10.191-10.175 0-5.518 4.49-10.174 10.19-10.174 5.7 0 10.191 4.484 10.191 10.174z"/></g><g opacity=".05"><path fill="#4d4d4d" d="M560.475 446.01c0 4.311-3.455 7.588-7.773 7.588s-7.772-3.45-7.772-7.588a7.734 7.734 0 0 1 7.772-7.76 7.734 7.734 0 0 1 7.773 7.76z"/></g></g><g opacity=".05"><g opacity=".05"><path fill="#333" d="M612.469 451.006c0 2.931-2.418 5.346-5.355 5.346-2.936 0-5.354-2.415-5.354-5.346 0-2.932 2.418-5.346 5.354-5.346 3.11 0 5.355 2.414 5.355 5.346z"/></g><g opacity=".05"><path fill="#333" d="M614.363 456.357c0 3.966-3.282 7.07-7.081 7.07-3.973 0-7.082-3.277-7.082-7.07 0-3.967 3.282-7.07 7.082-7.07 3.8-.173 7.081 3.103 7.081 7.07z"/></g><g opacity=".05"><path fill="#333" d="M610.739 446.521c0 2.07-1.555 3.622-3.455 3.622-1.9 0-3.454-1.552-3.454-3.622 0-2.069 1.554-3.621 3.454-3.621 1.9 0 3.455 1.552 3.455 3.621z"/></g><g opacity=".05"><path fill="#4d4d4d" d="M611.778 451.004a3.094 3.094 0 0 1-3.11 3.104 3.093 3.093 0 0 1-3.108-3.104 3.094 3.094 0 0 1 3.109-3.104 3.094 3.094 0 0 1 3.109 3.104z"/></g><g opacity=".05"><path fill="#4d4d4d" d="M610.22 446.872c0 1.207-1.036 2.242-2.245 2.242s-2.245-1.035-2.245-2.242 1.036-2.242 2.245-2.242c1.21 0 2.246 1.035 2.246 2.242z"/></g></g><g opacity=".05"><g opacity=".05"><path fill="#333" d="M685.01 442.211c0 6.725-5.353 12.071-12.09 12.071-6.736 0-12.09-5.346-12.09-12.07 0-6.726 5.354-12.072 12.09-12.072 6.737 0 12.09 5.346 12.09 12.071z"/></g><g opacity=".05"><path fill="#333" d="M689.152 454.28c0 8.967-7.255 16.21-16.236 16.21-8.982 0-16.236-7.243-16.236-16.21s7.254-16.21 16.236-16.21c8.981 0 16.235 7.243 16.235 16.21z"/></g><g opacity=".05"><path fill="#333" d="M680.86 431.867c0 4.484-3.627 8.278-7.945 8.278-4.318 0-7.945-3.622-7.945-8.278 0-4.483 3.627-8.277 7.945-8.277 4.318 0 7.945 3.794 7.945 8.277z"/></g><g opacity=".05"><path fill="#4d4d4d" d="M683.108 442.208c0 3.794-3.11 6.898-6.91 6.898-3.799 0-6.908-3.104-6.908-6.898 0-3.794 3.109-6.898 6.909-6.898s6.909 3.104 6.909 6.898z"/></g><g opacity=".05"><path fill="#4d4d4d" d="M679.829 432.896c0 2.931-2.418 5.345-5.355 5.345-2.936 0-5.354-2.414-5.354-5.345 0-2.932 2.418-5.346 5.354-5.346 2.937 0 5.355 2.414 5.355 5.346z"/></g></g><g opacity=".05"><g opacity=".05"><path fill="#333" d="M729.397 461.866c0 .517-.345.862-.863.862-.519 0-.864-.345-.864-.862s.345-.862.864-.862c.345-.173.863.345.863.862z"/></g><g opacity=".05"><path fill="#333" d="M729.748 462.737a1.18 1.18 0 0 1-1.209 1.207 1.18 1.18 0 0 1-1.209-1.207c0-.69.518-1.207 1.209-1.207.69 0 1.209.517 1.209 1.207z"/></g><g opacity=".05"><path fill="#333" d="M729.052 461.01c0 .345-.346.69-.691.69s-.691-.345-.691-.69.346-.69.691-.69c.518.172.69.345.69.69z"/></g><g opacity=".05"><path fill="#4d4d4d" d="M729.226 461.867c0 .345-.172.518-.518.518-.345 0-.518-.173-.518-.518 0-.345.173-.517.518-.517.346 0 .518.172.518.517z"/></g><g opacity=".05"><path fill="#4d4d4d" d="M729.05 461.183a.371.371 0 0 1-.345.345.371.371 0 0 1-.345-.345c0-.173.173-.345.345-.345.173-.173.346 0 .346.345z"/></g></g><g opacity=".05"><g opacity=".05"><path fill="#333" d="M730.091 457.39c0 8.967-7.254 16.21-16.235 16.21-8.982 0-16.236-7.243-16.236-16.21s7.254-16.21 16.236-16.21c8.981.172 16.235 7.415 16.235 16.21z"/></g><g opacity=".05"><path fill="#333" d="M735.443 473.596c0 11.898-9.672 21.728-21.59 21.728s-21.763-9.657-21.763-21.728c0-11.9 9.672-21.556 21.763-21.556 11.918 0 21.59 9.657 21.59 21.556z"/></g><g opacity=".05"><path fill="#333" d="M724.385 443.594c0 6.035-4.837 11.036-10.536 11.036-5.873 0-10.709-4.828-10.709-11.036 0-6.036 4.836-10.864 10.709-10.864 5.872 0 10.536 4.828 10.536 10.864z"/></g><g opacity=".05"><path fill="#4d4d4d" d="M727.494 457.392a9.28 9.28 0 0 1-9.327 9.312 9.28 9.28 0 0 1-9.327-9.312 9.28 9.28 0 0 1 9.327-9.312c5.181 0 9.327 4.311 9.327 9.312z"/></g><g opacity=".05"><path fill="#4d4d4d" d="M723.003 444.97c0 3.966-3.109 7.07-7.081 7.07-3.973 0-7.082-3.104-7.082-7.07s3.109-7.07 7.082-7.07c3.972 0 7.081 3.104 7.081 7.07z"/></g></g><g opacity=".05"><g opacity=".05"><path fill="#333" d="M787.264 470.321c0 1.897-1.554 3.622-3.627 3.622-1.9 0-3.627-1.552-3.627-3.622 0-1.897 1.554-3.621 3.627-3.621 2.073.172 3.627 1.724 3.627 3.621z"/></g><g opacity=".05"><path fill="#4d4d4d" d="M786.745 469.46c0 1.206-.863 2.069-2.072 2.069-1.21 0-2.073-.863-2.073-2.07 0-1.207.864-2.069 2.073-2.069s2.072.862 2.072 2.07z"/></g></g><g opacity=".05"><g opacity=".05"><path fill="#333" d="M743.22 461.178c0 4.138-3.455 7.587-7.6 7.587-4.146 0-7.6-3.449-7.6-7.587 0-4.14 3.454-7.588 7.6-7.588 4.318 0 7.6 3.449 7.6 7.588z"/></g><g opacity=".05"><path fill="#4d4d4d" d="M742.176 459.111c0 2.415-1.9 4.311-4.318 4.311-2.418 0-4.318-1.896-4.318-4.31 0-2.415 1.9-4.312 4.318-4.312 2.245-.172 4.318 1.897 4.318 4.311z"/></g></g><g opacity=".05"><g opacity=".05"><path fill="#333" d="M763.764 457.387c0 1.552-1.209 2.759-2.763 2.759-1.555 0-2.591-1.207-2.591-2.76 0-1.551 1.209-2.586 2.59-2.586 1.383 0 2.764 1.035 2.764 2.587z"/></g><g opacity=".05"><path fill="#4d4d4d" d="M763.419 456.522c0 .862-.691 1.552-1.555 1.552-.863 0-1.554-.69-1.554-1.552 0-.862.69-1.552 1.554-1.552.864 0 1.555.69 1.555 1.552z"/></g></g><g opacity=".05"><g opacity=".05"><path fill="#333" d="M994.353 463.939c0 14.83-11.917 26.729-26.771 26.729-14.854 0-26.772-11.899-26.772-26.73 0-14.83 11.918-26.728 26.772-26.728s26.771 12.071 26.771 26.729z"/></g><g opacity=".05"><path fill="#4d4d4d" d="M990.374 456.527c0 8.45-6.909 15.348-15.372 15.348-8.463 0-15.372-6.898-15.372-15.348 0-8.45 6.909-15.347 15.372-15.347 8.463 0 15.372 6.898 15.372 15.347z"/></g></g><g opacity=".05"><g opacity=".05"><path fill="#333" d="M1028.723 452.39c0 12.416-10.19 22.59-22.627 22.59-12.435 0-22.626-10.174-22.626-22.59s10.19-22.59 22.626-22.59c12.609 0 22.627 10.002 22.627 22.59z"/></g><g opacity=".05"><path fill="#4d4d4d" d="M1025.268 446.003c0 7.243-5.873 12.934-12.954 12.934-7.254 0-12.954-5.863-12.954-12.934 0-7.07 5.872-12.933 12.954-12.933 7.081 0 12.954 5.863 12.954 12.933z"/></g></g><g opacity=".05"><g opacity=".05"><path fill="#333" d="M971.033 456.01c0 12.416-10.19 22.59-22.627 22.59-12.436 0-22.626-10.174-22.626-22.59s10.19-22.59 22.626-22.59c12.609 0 22.627 10.002 22.627 22.59z"/></g><g opacity=".05"><path fill="#4d4d4d" d="M967.578 449.623c0 7.243-5.872 12.934-12.954 12.934-7.082 0-12.954-5.864-12.954-12.934 0-7.242 5.872-12.933 12.954-12.933 7.082 0 12.954 5.69 12.954 12.933z"/></g></g><g opacity=".05"><g opacity=".05"><path fill="#333" d="M901.253 461.18c0 12.416-10.19 22.59-22.627 22.59-12.435 0-22.626-10.174-22.626-22.59s10.19-22.59 22.626-22.59c12.609 0 22.627 10.174 22.627 22.59z"/></g><g opacity=".05"><path fill="#4d4d4d" d="M897.798 454.803c0 7.243-5.872 12.934-12.954 12.934-7.254 0-12.954-5.864-12.954-12.934 0-7.242 5.873-12.933 12.954-12.933 7.082 0 12.954 5.863 12.954 12.933z"/></g></g><g opacity=".05"><g opacity=".05"><path fill="#333" d="M873.963 457.39c0 12.416-10.19 22.59-22.627 22.59-12.435 0-22.626-10.174-22.626-22.59s10.19-22.59 22.626-22.59c12.436 0 22.627 10.002 22.627 22.59z"/></g><g opacity=".05"><path fill="#4d4d4d" d="M870.508 451.003c0 7.243-5.872 12.934-12.954 12.934-7.254 0-12.954-5.864-12.954-12.934 0-7.242 5.872-12.933 12.954-12.933 7.082 0 12.954 5.69 12.954 12.933z"/></g></g><g opacity=".05"><g opacity=".05"><path fill="#333" d="M872.068 473.083c0 7.07-5.7 12.934-12.954 12.934-7.082 0-12.954-5.69-12.954-12.934 0-7.07 5.7-12.933 12.954-12.933 7.082 0 12.954 5.863 12.954 12.933z"/></g><g opacity=".05"><path fill="#4d4d4d" d="M869.994 469.455c0 4.139-3.282 7.415-7.427 7.415s-7.427-3.276-7.427-7.415 3.282-7.415 7.427-7.415 7.427 3.276 7.427 7.415z"/></g></g><g opacity=".05"><path fill="#4d4d4d" d="M891.578 453.763c0 7.243-5.872 12.934-12.954 12.934-7.254 0-12.954-5.864-12.954-12.934 0-7.242 5.872-12.933 12.954-12.933 7.254 0 12.954 5.863 12.954 12.933z"/></g><g opacity=".05"><g opacity=".05"><path fill="#333" d="M795.028 454.8c0 8.105-6.563 14.83-14.854 14.83-8.118 0-14.854-6.552-14.854-14.83 0-8.105 6.563-14.83 14.854-14.83 8.29.172 14.854 6.725 14.854 14.83z"/></g><g opacity=".05"><path fill="#4d4d4d" d="M792.787 450.66c0 4.656-3.8 8.45-8.464 8.45-4.663 0-8.463-3.794-8.463-8.45 0-4.656 3.8-8.45 8.463-8.45 4.664 0 8.464 3.794 8.464 8.45z"/></g></g><g opacity=".05"><g opacity=".05"><path fill="#333" d="M406.932 443.07c0 6.898-5.527 12.416-12.436 12.416s-12.436-5.518-12.436-12.416c0-6.898 5.527-12.416 12.436-12.416 6.736-.173 12.436 5.518 12.436 12.416z"/></g><g opacity=".05"><path fill="#333" d="M411.078 455.487c0 9.312-7.427 16.727-16.754 16.727-9.327 0-16.754-7.415-16.754-16.727 0-9.312 7.427-16.727 16.754-16.727 9.327 0 16.754 7.415 16.754 16.727z"/></g><g opacity=".05"><path fill="#333" d="M402.611 432.38c0 4.656-3.627 8.45-8.29 8.45-4.491 0-8.291-3.794-8.291-8.45 0-4.656 3.627-8.45 8.29-8.45 4.664 0 8.291 3.794 8.291 8.45z"/></g><g opacity=".05"><path fill="#4d4d4d" d="M405.029 443.073c0 3.966-3.282 7.242-7.255 7.242-3.972 0-7.254-3.276-7.254-7.242 0-3.967 3.282-7.243 7.254-7.243 3.973 0 7.255 3.276 7.255 7.243z"/></g><g opacity=".05"><path fill="#4d4d4d" d="M401.574 433.418c0 2.932-2.418 5.519-5.527 5.519-2.936 0-5.527-2.415-5.527-5.519 0-2.931 2.418-5.518 5.527-5.518 2.936 0 5.527 2.414 5.527 5.518z"/></g></g><g opacity=".05"><g opacity=".05"><path fill="#333" d="M465.826 447.902c0 5.518-4.491 10.002-10.018 10.002-5.527 0-10.018-4.484-10.018-10.002 0-5.518 4.49-10.002 10.018-10.002 5.527 0 10.018 4.484 10.018 10.002z"/></g><g opacity=".05"><path fill="#333" d="M469.284 457.9c0 7.416-6.045 13.451-13.472 13.451s-13.472-6.035-13.472-13.45c0-7.415 6.045-13.451 13.472-13.451s13.472 6.036 13.472 13.45z"/></g><g opacity=".05"><path fill="#333" d="M462.377 439.278c0 3.793-2.937 6.897-6.564 6.897-3.627 0-6.563-3.104-6.563-6.897 0-3.794 2.936-6.898 6.563-6.898 3.628.172 6.564 3.104 6.564 6.898z"/></g><g opacity=".05"><path fill="#4d4d4d" d="M464.275 447.899c0 3.276-2.59 5.863-5.873 5.863-3.281 0-5.872-2.587-5.872-5.863 0-3.104 2.59-5.69 5.872-5.69 3.282-.173 5.873 2.413 5.873 5.69z"/></g><g opacity=".05"><path fill="#4d4d4d" d="M461.506 440.141c0 2.414-1.9 4.311-4.318 4.311-2.418 0-4.318-1.897-4.318-4.31 0-2.415 1.9-4.312 4.318-4.312 2.418-.172 4.318 1.897 4.318 4.311z"/></g></g><g opacity=".05"><g opacity=".05"><path fill="#4d4d4d" d="M350.622 478.6H260.98v2.414h89.642z"/></g><g opacity=".05"><path fill="#4d4d4d" d="M468.592 478.6H378.95v2.414h89.642z"/></g><g opacity=".05"><path fill="#4d4d4d" d="M586.562 478.6H496.92v2.414h89.642z"/></g><g opacity=".05"><path fill="#4d4d4d" d="M704.522 478.6H614.88v2.414h89.642z"/></g><g opacity=".05"><path fill="#4d4d4d" d="M822.492 478.6H732.85v2.414h89.642z"/></g><g opacity=".05"><path fill="#4d4d4d" d="M940.462 478.6H850.82v2.414h89.642z"/></g><g opacity=".05"><path fill="#4d4d4d" d="M1058.432 478.6H968.79v2.414h89.642z"/></g></g><g opacity=".05"><g opacity=".05"><path fill="#666" d="M406.932 482.39H317.29v2.414h89.642z"/></g><g opacity=".05"><path fill="#666" d="M524.902 482.39H435.26v2.414h89.642z"/></g><g opacity=".05"><path fill="#666" d="M642.862 482.39H553.22v2.414h89.642z"/></g><g opacity=".05"><path fill="#666" d="M760.832 482.39H671.19v2.414h89.642z"/></g><g opacity=".05"><path fill="#666" d="M878.802 482.39H789.16v2.414h89.642z"/></g><g opacity=".05"><path fill="#666" d="M996.772 482.39H907.13v2.414h89.642z"/></g><g opacity=".05"><path fill="#666" d="M1114.732 482.39h-89.642v2.414h89.642z"/></g></g></g></g></g></svg>