<svg xmlns="http://www.w3.org/2000/svg" width="133" height="133" viewBox="0 0 133 133"><defs><mask id="93uob" width="2" height="2" x="-1" y="-1"><path fill="#fff" d="M24 19h85v85H24z"/><path d="M109 61.5c0 23.472-19.028 42.5-42.5 42.5S24 84.972 24 61.5 43.028 19 66.5 19 109 38.028 109 61.5z"/></mask><filter id="93uoa" width="165" height="170" x="-16" y="-21" filterUnits="userSpaceOnUse"><feOffset dy="5" in="SourceGraphic" result="FeOffset1023Out"/><feGaussianBlur in="FeOffset1023Out" result="FeGaussianBlur1024Out" stdDeviation="12 12"/></filter></defs><g><g><g filter="url(#93uoa)"><path fill="none" d="M109 61.5c0 23.472-19.028 42.5-42.5 42.5S24 84.972 24 61.5 43.028 19 66.5 19 109 38.028 109 61.5z" mask="url(&quot;#93uob&quot;)"/><path fill="#e3b873" fill-opacity=".2" d="M109 61.5c0 23.472-19.028 42.5-42.5 42.5S24 84.972 24 61.5 43.028 19 66.5 19 109 38.028 109 61.5z"/></g><path fill="#e3b873" d="M109 61.5c0 23.472-19.028 42.5-42.5 42.5S24 84.972 24 61.5 43.028 19 66.5 19 109 38.028 109 61.5z"/></g><g transform="rotate(90 69.5 62)"><path fill="#fff" d="M66 48l12.124 21H53.876z"/></g></g></svg>