<svg xmlns="http://www.w3.org/2000/svg" width="28" height="28" viewBox="0 0 28 28"><g><g><path fill="#e3b873" d="M27.39 26.228c-.094.14-.234.186-.42.233-.14 0-.327-.093-.373-.233l-1.306-2.24c-.7-.046-1.306.327-1.633.934l1.353 2.285a.424.424 0 0 1 0 .466c-.093.14-.233.234-.373.234h-.374c-.979 0-1.912-.373-2.612-1.073a3.692 3.692 0 0 1-1.077-2.386c-1.677-2.515-2.935-4.238-3.913-5.217l-2.877-2.876L3.881 27.44c-.373.373-.886.56-1.352.56-.467 0-.933-.187-1.306-.513l-.653-.653a1.868 1.868 0 0 1-.56-1.353c0-.513.187-1.026.56-1.399l9.915-11.067-1.706-1.667C7.053 9.622 5.42 8.41 3.6 7.477l-.022-.01a3.699 3.699 0 0 1-1.89-.69 3.674 3.674 0 0 1-.98-5.084c.094-.14.234-.233.374-.186.14 0 .326.093.373.233l1.353 2.239a1.642 1.642 0 0 0 1.585-.933L3.088.714a.424.424 0 0 1 0-.467c.047-.093.187-.186.327-.233 1.12-.093 2.239.28 3.032 1.073a3.694 3.694 0 0 1 1.08 2.439c.932 1.813 2.142 3.442 3.864 5.164l1.566 1.566 2.072-2.313a.426.426 0 0 1 .248-.134c.733-.921.709-2.174-.108-2.99-1.866-1.866-2.938-1.866-4.99-1.866h-.607a.454.454 0 0 1-.467-.374c-.046-.233.047-.42.28-.513 4.012-1.819 6.763-2.052 9.469-.793 1.26.56 1.726 1.026 2.705 2.006l1.68 1.68c.512.512.839 1.165.932 1.818.094.28.094.513.094.7 0 .373 0 .466.373.793.186-.14.42-.28.653-.28.233 0 .466.093.653.28l1.632 1.632c.28.28.42.607.42.98s-.14.746-.42.98l-3.312 3.311c-.233.327-.606.466-.979.466s-.746-.14-.98-.42l-1.632-1.632a1.028 1.028 0 0 1-.28-.7c0-.233.093-.466.28-.606-.373-.326-.466-.326-.84-.326-.186 0-.373 0-.653-.047a3.118 3.118 0 0 1-1.087-.376l-1.821 2.039 3.002 3.001c.977.978 2.65 2.233 5.206 3.907a3.688 3.688 0 0 1 1.93.664c1.633 1.167 2.099 3.405.98 5.085zM15.962 8.223l2.006 2.006c.373.373.793.606 1.306.653.233.047.42.047.56.047.512 0 .886.046 1.445.606.187.186.28.466.28.7.047.28-.047.513-.233.653l1.633 1.632a.451.451 0 0 0 .653 0l3.311-3.312a.423.423 0 0 0 .14-.326.423.423 0 0 0-.14-.327l-1.632-1.632c-.14.186-.373.28-.653.28-.234 0-.513-.094-.7-.28-.56-.56-.606-.933-.606-1.446 0-.14 0-.327-.047-.56-.047-.466-.28-.933-.653-1.306l-1.68-1.679c-.979-.98-1.352-1.353-2.471-1.819-1.96-.886-3.918-.933-6.577-.093 1.26.14 2.379.606 3.871 2.052 1.12 1.12 1.213 2.892.187 4.151zM1.129 2.953A2.84 2.84 0 0 0 2.202 6.03a2.822 2.822 0 0 0 3.125.047 2.86 2.86 0 0 0 1.185-1.656c.049-.203.075-.414.075-.63a.48.48 0 0 1 .014-.118c-.018-.708-.326-1.367-.807-1.887-.42-.42-.933-.7-1.493-.793l1.026 1.772a.35.35 0 0 1 0 .42l-.093.233c-.466.933-1.446 1.493-2.519 1.446h-.233c-.14 0-.28-.093-.373-.233zm9.955 9.394l1.256-1.402-1.602-1.602c-1.4-1.4-2.519-2.799-3.405-4.292a3.674 3.674 0 0 1-1.446 1.82c-.233.14-.513.28-.746.373 1.492.886 2.892 2.005 4.29 3.451zm2.199 3.144a.479.479 0 0 1 .114-.178l1.865-2.099a.479.479 0 0 1 .152-.107l1.925-2.154-1.959-1.959L3.383 22.417l.778.779a.45.45 0 0 1 0 .653.423.423 0 0 1-.326.14.423.423 0 0 1-.327-.14l-.742-.742-.616.69.705.705a.45.45 0 0 1 0 .653.423.423 0 0 1-.326.14.423.423 0 0 1-.327-.14l-.669-.669-.264.296c-.233.233-.326.466-.326.746a.92.92 0 0 0 .28.653l.653.606c.373.373.98.327 1.352-.046zm4.078 3.087c.291.29.607.643.95 1.056l.356-.356a.45.45 0 0 1 .653 0 .45.45 0 0 1 0 .653l-.428.428c.18.234.368.482.561.745l.52-.52a.451.451 0 0 1 .653 0 .451.451 0 0 1 0 .653l-.625.625c.245.345.5.712.765 1.1l.043-.11.006-.014a4.284 4.284 0 0 1 .157-.345l.013-.024c.285-.555.695-1.057 1.274-1.419.28-.186.56-.326.84-.42-2.1-1.399-3.546-2.518-4.385-3.405L15.7 14.211l-1.277 1.43zm9.562 6.39a2.84 2.84 0 0 0-1.073-3.078 2.791 2.791 0 0 0-1.586-.513c-.56 0-1.072.14-1.539.466a2.805 2.805 0 0 0-1.26 2.332.484.484 0 0 1-.012.112c.029.692.334 1.336.806 1.847.42.42.933.7 1.492.793l-1.026-1.772a.35.35 0 0 1 0-.42l.093-.233c.467-.933 1.446-1.54 2.52-1.446h.232c.14 0 .28.093.374.233z"/></g></g></svg>