<svg xmlns="http://www.w3.org/2000/svg" width="34" height="29" viewBox="0 0 34 29"><g><g><path fill="#e3b873" d="M32.85 9.762a.595.595 0 0 1 .066 1.089l-3.612 1.854a3.573 3.573 0 0 1-3.92 4.971l-.223.608a.596.596 0 0 1-.764.354l-5.033-1.847-.411 1.119a2.363 2.363 0 0 1-1.169 1.302v6.6a1.787 1.787 0 0 1-3.574 0v-.596H6.194a2.987 2.987 0 0 1-2.13 1.727v1.251c0 .33-.267.596-.596.596H1.066a.596.596 0 0 1-.596-.596v-9.532c0-.329.267-.595.596-.595h2.402c.329 0 .595.266.595.595v1.252c.949.196 1.743.84 2.13 1.727h8.017v-3.04a2.354 2.354 0 0 1-.85-2.746l.412-1.12-5.593-2.053a.596.596 0 0 1-.354-.764l.616-1.678-2.796-1.027a.596.596 0 0 1-.354-.765l2.67-7.268a.595.595 0 0 1 .766-.353l24.12 8.936zm-17.449 11.88h1.192V19.46a2.373 2.373 0 0 1-.699-.137l-.493-.18zM2.872 19.257h-1.21v8.34h1.21zm2.383 3.575a1.79 1.79 0 0 0-1.192-1.686v4.563a1.791 1.791 0 0 0 1.192-1.686zm1.21 1.191h10.128v-1.191H6.465zm10.128 1.787v-.595H15.4v.595a.596.596 0 0 0 1.192 0zm1.315-9.554l-3.02-1.108-.411 1.118c-.227.618.09 1.302.708 1.53l1.12.41a1.192 1.192 0 0 0 1.53-.707l.41-1.12zm7.573-2.296l-4.688-1.722-1.672 1.574a.6.6 0 0 1-.614.125L9.56 10.653l-.411 1.118 15.1 5.545zm2.746-.706l-1.503.774-.92 2.508a2.392 2.392 0 0 0 2.473-1.55 2.364 2.364 0 0 0-.05-1.732zm2.937-2.845L8.874 2.152l-2.259 6.15 11.958 4.391 1.674-1.574a.596.596 0 0 1 .614-.125l5.311 1.95a.534.534 0 0 1 .094-.016z"/></g></g></svg>